<?xml version="1.0" encoding="UTF-8"?>
<svg version="1.1" xmlns="http://www.w3.org/2000/svg" width="400" height="400">
<path d="M0 0 C2.64 0 5.28 0 8 0 C8.33 0.99 8.66 1.98 9 3 C9.556875 3.268125 10.11375 3.53625 10.6875 3.8125 C14.03764163 5.532843 16.62425507 8.08575288 19 11 C19 11.66 19 12.32 19 13 C19.54359035 13.21855085 20.08718071 13.43710171 20.6472435 13.66227531 C23.78482991 15.44623672 26.12715628 17.85831403 28.644104 20.40359497 C29.20288482 20.96066694 29.76166564 21.51773891 30.33737922 22.09169185 C32.20919798 23.96021544 34.07377721 25.83579931 35.93847656 27.71142578 C37.27852143 29.05203476 38.61900678 30.39220357 39.9598999 31.73196411 C43.60040279 35.37189247 47.23470023 39.01796057 50.86793232 42.66514444 C54.6653614 46.47506409 58.4684435 50.27933216 62.27093506 54.084198 C69.47134033 61.29082296 76.66663157 68.50253165 83.86010909 75.71607101 C92.04957417 83.92787986 100.24470944 92.13401996 108.44033098 100.33968377 C125.29988039 117.22014625 142.15228013 134.10773149 159 151 C163.18656705 149.36186036 165.9745758 146.28617228 169.06602478 143.14756775 C169.6702804 142.54219872 170.27453602 141.93682968 170.89710242 141.31311613 C172.92307516 139.2810656 174.94180364 137.24196688 176.96069336 135.20288086 C178.41082104 133.74564166 179.86141961 132.28887092 181.31245422 130.83253479 C184.43742562 127.69445613 187.55936109 124.55339849 190.6790905 121.41010857 C195.61020338 116.44245066 200.54996814 111.48345856 205.49134827 106.52601624 C219.54167415 92.42735462 233.58022707 78.31700454 247.61010742 64.19799805 C255.35784083 56.40120014 263.11271867 48.61157974 270.8753615 40.82962519 C275.79127123 35.90061211 280.69801983 30.9627097 285.5982455 26.01810634 C288.64589594 22.94703232 291.70184034 19.88431885 294.76022148 16.82393456 C296.17909766 15.40075538 297.59451941 13.97412278 299.00624466 12.54384995 C300.93073434 10.59505616 302.86711077 8.65890419 304.80699158 6.72544861 C305.36555924 6.15386534 305.9241269 5.58228207 306.49962085 4.9933781 C309.50944762 2.02228429 311.67881441 0.15221863 316 0 C320.78615016 2.01522112 324.69481935 6.04711824 328 10 C328 10.66 328 11.32 328 12 C328.53625 12.20625 329.0725 12.4125 329.625 12.625 C332.91978009 14.53250426 335.59363628 17.04819384 338 20 C338 20.66 338 21.32 338 22 C338.99 22.33 339.98 22.66 341 23 C341 25.64 341 28.28 341 31 C340.01 31.33 339.02 31.66 338 32 C337.5978125 32.8353125 337.5978125 32.8353125 337.1875 33.6875 C335.467157 37.03764163 332.91424712 39.62425507 330 42 C329.34 42 328.68 42 328 42 C327.78066614 42.54437336 327.56133228 43.08874672 327.33535194 43.64961624 C325.5613893 46.77200881 323.16685091 49.10206003 320.6343689 51.60614014 C320.08138048 52.1608374 319.52839206 52.71553467 318.95864642 53.28704095 C317.10394203 55.14504033 315.24217837 56.99579984 313.38037109 58.84667969 C312.04961421 60.17687246 310.7192975 61.50750573 309.38938904 62.83854675 C305.77631922 66.45219109 302.15711004 70.05962986 298.53678465 73.66600323 C294.75489211 77.43540495 290.97865137 81.21045994 287.20181274 84.98492432 C280.04831172 92.13220573 272.88972709 99.27437301 265.72931159 106.4147265 C257.57796097 114.5437331 249.43227932 122.6784101 241.28707385 130.81357336 C224.53102552 147.54870879 207.76785452 164.27669444 191 181 C192.63747236 185.18594756 195.71270513 187.97050254 198.85243225 191.05929565 C199.45780128 191.66284571 200.06317032 192.26639576 200.68688387 192.88823521 C202.71894197 194.91187172 204.75804242 196.92826191 206.79711914 198.94482422 C208.25436525 200.39332191 209.71113583 201.84229815 211.16746521 203.29171753 C214.30560231 206.41335633 217.4466671 209.53200904 220.58989143 212.64852524 C225.55796949 217.57528694 230.51684906 222.51123586 235.47398376 227.44900513 C249.57178096 241.48918315 263.67949192 255.51934679 277.80200195 269.53466797 C285.60067495 277.27430725 293.39039968 285.02283749 301.17037481 292.78127301 C306.09754786 297.69378664 311.03561029 302.59500199 315.98189366 307.48826957 C319.05459006 310.53326302 322.11678644 313.58864581 325.17606544 316.6471138 C326.59836898 318.06484146 328.02498339 319.4782592 329.45615005 320.88703918 C331.40733522 322.80892557 333.34255671 324.74558813 335.27455139 326.68673706 C335.84613466 327.24239188 336.41771793 327.7980467 337.0066219 328.37053955 C340.34051576 331.76075278 341.87648352 334.19667065 342 339 C340.84985352 341.03930664 340.84985352 341.03930664 339.06640625 342.84765625 C338.41687988 343.5245752 337.76735352 344.20149414 337.09814453 344.89892578 C336.05956299 345.93895752 336.05956299 345.93895752 335 347 C333.67548973 348.41509178 332.35127148 349.83045695 331.02734375 351.24609375 C329.666738 352.64583485 328.30344184 354.04296566 326.9375 355.4375 C326.25623047 356.15615234 325.57496094 356.87480469 324.87304688 357.61523438 C322.04578155 360.49138614 319.67059786 362.6843731 316.00390625 364.41015625 C306.89987954 363.16708368 297.22075753 349.35203333 290.87304688 342.98657227 C289.45338066 341.56662363 288.03349351 340.14689584 286.61340332 338.72737122 C282.7770468 334.89130052 278.94377205 331.05216383 275.11105919 327.21245313 C271.09833862 323.19346318 267.08276856 319.17732233 263.06750488 315.16087341 C255.47257932 307.56284508 247.88020555 299.96227218 240.28875399 292.36077303 C231.64258877 283.70341388 222.99356937 275.04890856 214.34431362 266.39463723 C196.55970673 248.59958983 178.77867228 230.80097641 161 213 C156.79763036 214.64014663 154.00244498 217.73993031 150.90274048 220.89039612 C150.29510687 221.4998487 149.68747327 222.10930129 149.06142652 222.73722214 C147.02397097 224.78309967 144.9937609 226.83602013 142.96337891 228.88891602 C141.50502909 230.3560142 140.04620076 231.82263687 138.58692932 233.28881836 C135.44400985 236.44823642 132.3040762 239.6105823 129.16627884 242.77508736 C124.20591167 247.77676995 119.23635805 252.76925488 114.26498413 257.75999451 C100.12922571 271.95337286 86.00348087 286.15666485 71.89257812 300.37475586 C64.10020076 308.22616629 56.29893277 316.06862919 48.48775995 323.90134186 C43.54179553 328.861966 38.6071282 333.83348111 33.68040872 338.81321537 C30.61465605 341.90667033 27.53851432 344.9896263 24.45928764 348.069664 C23.0318848 349.50164285 21.60879208 350.93793277 20.19033623 352.37877464 C18.25531305 354.34309492 16.3055116 356.29145732 14.35122681 358.23658752 C13.79168104 358.81206174 13.23213527 359.38753595 12.65563357 359.98044878 C9.25659225 363.32339624 6.81842695 364.88017471 2 365 C-0.03930664 363.84985352 -0.03930664 363.84985352 -1.84765625 362.06640625 C-2.5245752 361.41687988 -3.20149414 360.76735352 -3.89892578 360.09814453 C-4.59228027 359.40575684 -5.28563477 358.71336914 -6 358 C-7.41509178 356.67548973 -8.83045695 355.35127148 -10.24609375 354.02734375 C-11.64583485 352.666738 -13.04296566 351.30344184 -14.4375 349.9375 C-15.15615234 349.25623047 -15.87480469 348.57496094 -16.61523438 347.87304688 C-19.49138614 345.04578155 -21.6843731 342.67059786 -23.41015625 339.00390625 C-22.16327288 329.87196992 -8.27748383 320.14628506 -1.89477539 313.78125 C-0.46497466 312.35173169 0.96460522 310.92199246 2.39398193 309.49205017 C6.25691125 305.62883502 10.12290676 301.76870172 13.98947597 297.9091301 C18.03649299 293.86838216 22.08066119 289.82478502 26.12513733 285.78149414 C33.77628964 278.13344468 41.42998657 270.48794701 49.08460957 262.84337139 C57.80242693 254.1367477 66.51739069 245.42727005 75.23212039 236.717556 C93.151582 218.80853509 111.07460964 200.90308659 129 183 C127.3591834 178.79700592 124.2589581 175.99836969 121.10960388 172.89601135 C120.5001513 172.28767218 119.89069871 171.67933301 119.26277786 171.05255932 C117.21690793 169.01276746 115.16398919 166.98021913 113.11108398 164.94750977 C111.64399271 163.48752996 110.17736987 162.02707932 108.71118164 160.56619263 C105.55182204 157.41994053 102.3894833 154.27672412 99.22491264 151.13571358 C94.22365016 146.17099531 89.23105274 141.19762582 84.24000549 136.22264099 C70.04576272 122.07673458 55.83983164 107.94260038 41.62524414 93.81713867 C33.77570872 86.01666729 25.93335031 78.20905172 18.09865814 70.39367145 C13.1361938 65.4443107 8.16483907 60.50411029 3.18678463 55.57043278 C0.09495193 52.50202318 -2.98852091 49.42531987 -6.069664 46.34617996 C-7.50251851 44.91762856 -8.93882657 43.49253171 -10.37877464 42.07113075 C-12.34070424 40.13350408 -14.28999582 38.18398942 -16.23658752 36.23097229 C-16.81206174 35.66851368 -17.38753595 35.10605507 -17.98044878 34.52655226 C-20.95906525 31.50936501 -22.85170678 29.33443987 -23 25 C-20.98477888 20.21384984 -16.95288176 16.30518065 -13 13 C-12.34 13 -11.68 13 -11 13 C-10.79375 12.46375 -10.5875 11.9275 -10.375 11.375 C-8.46749574 8.08021991 -5.95180616 5.40636372 -3 3 C-2.34 3 -1.68 3 -1 3 C-0.67 2.01 -0.34 1.02 0 0 Z " fill="#000000" transform="translate(41,19)"/>
</svg>
