<?xml version="1.0" encoding="UTF-8" standalone="no"?>
<!-- Created with Inkscape (http://www.inkscape.org/) -->

<svg
   xmlns:dc="http://purl.org/dc/elements/1.1/"
   xmlns:cc="http://creativecommons.org/ns#"
   xmlns:rdf="http://www.w3.org/1999/02/22-rdf-syntax-ns#"
   xmlns:svg="http://www.w3.org/2000/svg"
   xmlns="http://www.w3.org/2000/svg"
   xmlns:sodipodi="http://sodipodi.sourceforge.net/DTD/sodipodi-0.dtd"
   xmlns:inkscape="http://www.inkscape.org/namespaces/inkscape"
   version="1.1"
   id="svg2"
   width="256"
   height="256"
   viewBox="0 0 256 256"
   sodipodi:docname="shadowsocks.ico.svg"
   inkscape:version="0.92.2 (5c3e80d, 2017-08-06)">
  <metadata
     id="metadata8">
    <rdf:RDF>
      <cc:Work
         rdf:about="">
        <dc:format>image/svg+xml</dc:format>
        <dc:type
           rdf:resource="http://purl.org/dc/dcmitype/StillImage" />
        <dc:title></dc:title>
      </cc:Work>
    </rdf:RDF>
  </metadata>
  <defs
     id="defs6" />
  <sodipodi:namedview
     pagecolor="#ffffff"
     bordercolor="#666666"
     borderopacity="1"
     objecttolerance="10"
     gridtolerance="10"
     guidetolerance="10"
     inkscape:pageopacity="0"
     inkscape:pageshadow="2"
     inkscape:window-width="1440"
     inkscape:window-height="837"
     id="namedview4"
     showgrid="false"
     inkscape:zoom="0.921875"
     inkscape:cx="128"
     inkscape:cy="128"
     inkscape:window-x="-8"
     inkscape:window-y="-8"
     inkscape:window-maximized="1"
     inkscape:current-layer="svg2" />
  <path
     style="fill:#197dbf;fill-opacity:1"
     d="m 116.36933,224.5 c 0.34376,-10.45 0.62629,-22.21105 0.62784,-26.13567 l 0.003,-7.13567 13.25,4.97395 c 7.2875,2.73568 13.3959,5.11763 13.57421,5.29322 0.3474,0.34209 -25.39813,39.32968 -27.07718,41.00417 -0.67025,0.66844 -0.79548,-5.2997 -0.3777,-18 z m 44.99647,-39.34777 c -24.27382,-7.50873 -44.29882,-13.94733 -44.5,-14.30801 -0.20119,-0.36068 18.68895,-23.45592 41.9781,-51.32277 23.28914,-27.866842 42.17575,-50.835137 41.97023,-51.040652 -0.20551,-0.205516 -25.87676,21.175475 -57.04722,47.513312 L 87.093353,163.88109 49.457137,150.51767 C 28.757219,143.16779 11.648436,136.98177 11.43762,136.77095 11.226804,136.56014 65.091505,109.2403 131.13696,76.06021 217.64937,32.597869 251.06858,16.25935 250.67942,17.616384 250.38233,18.652373 240.63573,59.1 229.02032,107.5 c -23.48589,97.86281 -21.90503,91.53582 -22.83771,91.40223 -0.37543,-0.0538 -20.543,-6.24128 -44.81681,-13.75 z"
     id="path817"
     inkscape:connector-curvature="0" />
</svg>
