<?xml version="1.0" encoding="UTF-8"?>
<svg version="1.1" xmlns="http://www.w3.org/2000/svg" width="500" height="500">
<path d="M0 0 C165 0 330 0 500 0 C500 165 500 330 500 500 C335 500 170 500 0 500 C0 335 0 170 0 0 Z " fill="#077DFF" transform="translate(0,0)"/>
<path d="M0 0 C0.69057495 -0.00067474 1.3811499 -0.00134949 2.09265137 -0.00204468 C13.72657138 0.01596397 24.92103941 0.79137594 36.3125 3.25 C37.06789063 3.4056543 37.82328125 3.56130859 38.6015625 3.72167969 C93.0482911 15.28007419 136.93718666 54.97401844 166.86035156 100.24731445 C188.92476892 134.2772116 216.3125 184.18015444 216.3125 226.25 C75.0725 226.25 -66.1675 226.25 -211.6875 226.25 C-202.43242363 175.34707994 -182.11650744 124.00776891 -149.6875 83.25 C-148.94886719 82.31929688 -148.21023437 81.38859375 -147.44921875 80.4296875 C-133.05071102 62.57454319 -117.35368771 46.60500248 -98.6875 33.25 C-98.09211426 32.80994629 -97.49672852 32.36989258 -96.88330078 31.91650391 C-69.16006015 11.45205453 -34.34058223 0.03010184 0 0 Z " fill="#0000FF" transform="translate(249.6875,273.75)"/>
<path d="M0 0 C20.13411381 -0.59952696 38.41456685 5.26944509 53.9609375 18.15625 C54.80011719 18.83300781 55.63929688 19.50976562 56.50390625 20.20703125 C70.88891709 32.40641254 81.75966126 49.50235816 83.78515625 68.5859375 C85.16610571 96.63455542 79.81718444 118.83073262 60.9609375 140.15625 C58.90245762 142.08724043 56.74618815 143.85567812 54.5234375 145.59375 C53.91870605 146.06748047 53.31397461 146.54121094 52.69091797 147.02929688 C46.52618604 151.71137176 40.04296768 155.05118903 32.9609375 158.15625 C32.22359375 158.49269531 31.48625 158.82914063 30.7265625 159.17578125 C13.32740101 166.47336345 -10.61911311 165.45470935 -27.90869141 158.39257812 C-35.87245968 154.92156546 -43.18009232 150.47765769 -50.0390625 145.15625 C-50.72355469 144.63675781 -51.40804687 144.11726562 -52.11328125 143.58203125 C-67.62854472 130.99302572 -77.74149406 109.76073584 -80.0390625 90.15625 C-81.32466265 68.39993978 -75.60078872 45.90709732 -61.00927734 29.31176758 C-58.75086225 26.85633847 -56.41031373 24.50351458 -54.0390625 22.15625 C-52.97945312 21.06376953 -52.97945312 21.06376953 -51.8984375 19.94921875 C-37.52854816 6.04552811 -19.49004801 1.00205902 0 0 Z " fill="#0000FF" transform="translate(248.0390625,93.84375)"/>
<path d="M0 0 C0.34993652 3.22400532 0.21311008 4.67270501 -1.58203125 7.4296875 C-11.54840426 18.35604391 -25.05415548 27.24153368 -40.19921875 28.203125 C-51.24397394 28.35154276 -59.09383708 27.43044022 -67.40625 19.81640625 C-69.04861791 17.94458988 -70.08617323 16.31282961 -71 14 C-70.625 11.75 -70.625 11.75 -70 10 C-68.68 9.67 -67.36 9.34 -66 9 C-65.63648438 9.47050781 -65.27296875 9.94101563 -64.8984375 10.42578125 C-60.49417235 15.88029425 -56.16113814 19.1862343 -49 20 C-35.35104786 21.28279625 -24.04236869 15.71901773 -13.1875 8 C-11.36641942 6.33501204 -9.87152434 4.70946314 -8.3125 2.8125 C-5.28010941 -0.87554261 -4.40456895 -1.32137068 0 0 Z " fill="#FAFAFF" transform="translate(287,209)"/>
<path d="M0 0 C1.65 0.33 3.3 0.66 5 1 C4.67 2.32 4.34 3.64 4 5 C2.35 4.67 0.7 4.34 -1 4 C-0.67 2.68 -0.34 1.36 0 0 Z " fill="#D4D4FF" transform="translate(213,180)"/>
<path d="M0 0 C1.98 0.495 1.98 0.495 4 1 C3.67 2.65 3.34 4.3 3 6 C1.68 5.67 0.36 5.34 -1 5 C-0.67 3.35 -0.34 1.7 0 0 Z " fill="#D5D5FF" transform="translate(277,174)"/>
</svg>
