<?xml version="1.0" encoding="UTF-8"?>
<svg version="1.1" xmlns="http://www.w3.org/2000/svg" width="500" height="500">
<path d="M0 0 C165 0 330 0 500 0 C500 165 500 330 500 500 C335 500 170 500 0 500 C0 335 0 170 0 0 Z " fill="#FEA900" transform="translate(0,0)"/>
<path d="M0 0 C2.46348059 0.01865896 4.92659173 0.02050619 7.39013672 0.02026367 C8.95915042 0.02516628 10.52816158 0.03098902 12.09716797 0.0378418 C13.2000264 0.03951103 13.2000264 0.03951103 14.32516479 0.04121399 C19.42629471 0.08962478 19.42629471 0.08962478 20.54248047 1.20581055 C22.58356314 1.60292496 24.62588042 1.99446144 26.6730957 2.35864258 C64.98243197 9.26424947 97.78009468 28.40600387 125.54248047 55.20581055 C126.1323877 55.77380371 126.72229492 56.34179688 127.33007812 56.92700195 C134.93529767 64.2881385 142.11299992 71.77426755 148.54248047 80.20581055 C148.95530273 80.74222168 149.368125 81.27863281 149.79345703 81.83129883 C178.32071759 119.06877033 212.54248047 178.35963638 212.54248047 227.20581055 C70.64248047 227.20581055 -71.25751953 227.20581055 -217.45751953 227.20581055 C-211.27293115 196.28286863 -202.14438913 166.65360512 -188.45751953 138.20581055 C-187.88614258 136.99368896 -187.88614258 136.99368896 -187.30322266 135.75708008 C-178.07561877 116.22327136 -166.86033154 98.14466284 -153.45751953 81.20581055 C-152.68923828 80.22483398 -151.92095703 79.24385742 -151.12939453 78.2331543 C-145.26081293 70.89742729 -138.9105174 64.02515672 -132.45751953 57.20581055 C-131.81943359 56.52518555 -131.18134766 55.84456055 -130.52392578 55.14331055 C-125.57549482 50.01687848 -120.03143697 45.62875023 -114.45751953 41.20581055 C-113.44431641 40.38725586 -112.43111328 39.56870117 -111.38720703 38.7253418 C-91.15504463 22.57662002 -66.93839067 10.47492133 -41.77001953 4.39331055 C-40.96411377 4.19842041 -40.15820801 4.00353027 -39.32788086 3.80273438 C-26.21772341 0.83190173 -13.38672386 -0.10524584 0 0 Z " fill="#FE5500" transform="translate(254.45751953125,272.794189453125)"/>
<path d="M0 0 C17.82583823 13.61293702 31.10266186 32.1355492 34.99609375 54.59765625 C37.72085231 77.91483787 32.30948425 100.37737977 18.02832031 119.23583984 C7.23710542 132.37972751 -7.90233075 144.12986072 -24.5625 148.375 C-25.5525 148.65214844 -26.5425 148.92929687 -27.5625 149.21484375 C-40.78619159 152.53607185 -55.32714222 152.88959921 -68.5625 149.375 C-69.63564453 149.10042969 -69.63564453 149.10042969 -70.73046875 148.8203125 C-90.23105387 143.06604148 -108.55973265 129.75553143 -119.00390625 112.2734375 C-121.79086966 107.09066343 -124.21533153 101.7684935 -126.5625 96.375 C-126.89378906 95.64796875 -127.22507813 94.9209375 -127.56640625 94.171875 C-134.24004768 79.34156072 -132.55399489 56.51126205 -127.29443359 41.29736328 C-118.87513066 19.18475778 -103.71168457 1.60517049 -82.171875 -8.56640625 C-54.54350739 -19.77492065 -24.53693774 -16.83141605 0 0 Z " fill="#FE5500" transform="translate(298.5625,107.625)"/>
<path d="M0 0 C1.65 0.33 3.3 0.66 5 1 C5.34993652 4.22400532 5.21311008 5.67270501 3.41796875 8.4296875 C-6.54840426 19.35604391 -20.05415548 28.24153368 -35.19921875 29.203125 C-46.24397394 29.35154276 -54.09383708 28.43044022 -62.40625 20.81640625 C-64.04861791 18.94458988 -65.08617323 17.31282961 -66 15 C-65.625 12.75 -65.625 12.75 -65 11 C-63.68 10.67 -62.36 10.34 -61 10 C-60.63648438 10.47050781 -60.27296875 10.94101563 -59.8984375 11.42578125 C-55.49417235 16.88029425 -51.16113814 20.1862343 -44 21 C-30.36550219 22.28143776 -19.12131504 16.7218356 -8.25 9.0625 C-5.21069075 6.27646652 -2.60643859 3.18863278 0 0 Z " fill="#FFFBFA" transform="translate(282,208)"/>
<path d="M0 0 C1.65 0.33 3.3 0.66 5 1 C4.67 2.32 4.34 3.64 4 5 C2.35 4.67 0.7 4.34 -1 4 C-0.67 2.68 -0.34 1.36 0 0 Z " fill="#FFE2D4" transform="translate(213,180)"/>
<path d="M0 0 C1.98 0.495 1.98 0.495 4 1 C3.67 2.65 3.34 4.3 3 6 C1.68 5.67 0.36 5.34 -1 5 C-0.67 3.35 -0.34 1.7 0 0 Z " fill="#FFE3D5" transform="translate(277,174)"/>
</svg>
