<?xml version="1.0" encoding="UTF-8"?>
<svg version="1.1" xmlns="http://www.w3.org/2000/svg" width="500" height="500">
<path d="M0 0 C165 0 330 0 500 0 C500 165 500 330 500 500 C335 500 170 500 0 500 C0 335 0 170 0 0 Z " fill="#29FE00" transform="translate(0,0)"/>
<path d="M0 0 C3.31959958 3.00119209 6.56169278 6.07957147 9.78125 9.1875 C10.37115723 9.75549316 10.96106445 10.32348633 11.56884766 10.90869141 C19.1740672 18.26982795 26.35176945 25.755957 32.78125 34.1875 C33.19407227 34.72391113 33.60689453 35.26032227 34.03222656 35.81298828 C62.91008075 73.50809994 96.78125 132.83196008 96.78125 182.1875 C-45.77875 182.1875 -188.33875 182.1875 -335.21875 182.1875 C-333.73083138 173.25998828 -332.03988765 164.87700469 -329.71875 156.1875 C-329.54745575 155.54564758 -329.3761615 154.90379517 -329.19967651 154.24249268 C-323.44704564 132.84250853 -315.82586421 112.15563146 -306.21875 92.1875 C-305.64737305 90.97537842 -305.64737305 90.97537842 -305.06445312 89.73876953 C-295.83684924 70.20496082 -284.62156201 52.12635229 -271.21875 35.1875 C-270.45046875 34.20652344 -269.6821875 33.22554688 -268.890625 32.21484375 C-263.0220434 24.87911674 -256.67174787 18.00684617 -250.21875 11.1875 C-249.58066406 10.506875 -248.94257813 9.82625 -248.28515625 9.125 C-243.33672529 3.99856793 -237.79266743 -0.38956032 -232.21875 -4.8125 C-231.20554687 -5.63105469 -230.19234375 -6.44960938 -229.1484375 -7.29296875 C-205.83413603 -25.90176402 -178.35990021 -37.95035673 -149.21875 -43.8125 C-148.02765625 -44.06 -146.8365625 -44.3075 -145.609375 -44.5625 C-93.33641429 -53.3973666 -39.16452659 -34.6858581 0 0 Z " fill="#1FC100" transform="translate(371.21875,317.8125)"/>
<path d="M0 0 C22.93525471 -0.63709041 43.54498574 7.26646589 60.4609375 22.625 C75.68769599 37.20866651 85.28018528 56.88252469 85.90625 78.125 C86.25362519 102.80191389 80.27773385 124.52468289 62.97094727 142.94458008 C47.71861583 158.51418081 27.29647079 167.07038266 5.62109375 167.36279297 C-19.48390483 167.43271187 -40.98114212 160.19863885 -59.296875 142.68359375 C-69.93424303 131.4473813 -77.06001101 117.23422132 -80.296875 102.12109375 C-80.47992188 101.2703125 -80.66296875 100.41953125 -80.8515625 99.54296875 C-84.11283294 74.48268014 -79.61897804 51.98047233 -64.734375 31.55859375 C-50.00774848 12.96182989 -30.24084694 3.0873087 -6.859375 0.37109375 C-4.57355811 0.21384796 -2.28793667 0.12062251 0 0 Z " fill="#20C200" transform="translate(248.296875,91.87890625)"/>
<path d="M0 0 C1.65 0.33 3.3 0.66 5 1 C5.34993652 4.22400532 5.21311008 5.67270501 3.41796875 8.4296875 C-6.54840426 19.35604391 -20.05415548 28.24153368 -35.19921875 29.203125 C-46.24397394 29.35154276 -54.09383708 28.43044022 -62.40625 20.81640625 C-64.04861791 18.94458988 -65.08617323 17.31282961 -66 15 C-65.625 12.75 -65.625 12.75 -65 11 C-63.68 10.67 -62.36 10.34 -61 10 C-60.63648438 10.47050781 -60.27296875 10.94101563 -59.8984375 11.42578125 C-55.49417235 16.88029425 -51.16113814 20.1862343 -44 21 C-30.36550219 22.28143776 -19.12131504 16.7218356 -8.25 9.0625 C-5.21069075 6.27646652 -2.60643859 3.18863278 0 0 Z " fill="#FAFDFA" transform="translate(282,208)"/>
<path d="M0 0 C1.65 0.33 3.3 0.66 5 1 C4.67 2.32 4.34 3.64 4 5 C2.35 4.67 0.7 4.34 -1 4 C-0.67 2.68 -0.34 1.36 0 0 Z " fill="#DAF5D4" transform="translate(213,180)"/>
<path d="M0 0 C1.98 0.495 1.98 0.495 4 1 C3.67 2.65 3.34 4.3 3 6 C1.68 5.67 0.36 5.34 -1 5 C-0.67 3.35 -0.34 1.7 0 0 Z " fill="#DAF5D5" transform="translate(277,174)"/>
</svg>
