<?xml version="1.0" encoding="UTF-8"?>
<svg version="1.1" xmlns="http://www.w3.org/2000/svg" width="500" height="500">
<path d="M0 0 C165 0 330 0 500 0 C500 165 500 330 500 500 C335 500 170 500 0 500 C0 335 0 170 0 0 Z " fill="#FE00FF" transform="translate(0,0)"/>
<path d="M0 0 C1.03998642 0.00323273 1.03998642 0.00323273 2.10098267 0.00653076 C51.49710147 0.25132168 95.16552917 21.32381406 130.375 55.3125 C130.96490723 55.88049316 131.55481445 56.44848633 132.16259766 57.03369141 C139.7678172 64.39482795 146.94551945 71.880957 153.375 80.3125 C153.78782227 80.84891113 154.20064453 81.38532227 154.62597656 81.93798828 C183.85430979 120.09059054 217.375 179.44919117 217.375 229.3125 C74.155 229.3125 -69.065 229.3125 -216.625 229.3125 C-213.24539871 198.89608838 -201.62551676 167.88545912 -188.625 140.3125 C-188.19606445 139.3956543 -187.76712891 138.47880859 -187.32519531 137.53417969 C-177.83148174 117.4137 -166.42956557 98.75909979 -152.625 81.3125 C-151.85671875 80.33152344 -151.0884375 79.35054688 -150.296875 78.33984375 C-144.4282934 71.00411674 -138.07799787 64.13184617 -131.625 57.3125 C-130.98691406 56.631875 -130.34882813 55.95125 -129.69140625 55.25 C-124.74297529 50.12356793 -119.19891743 45.73543968 -113.625 41.3125 C-112.61179687 40.49394531 -111.59859375 39.67539062 -110.5546875 38.83203125 C-90.3225251 22.68330947 -66.10587114 10.58161078 -40.9375 4.5 C-40.13159424 4.30510986 -39.32568848 4.11021973 -38.49536133 3.90942383 C-25.74997814 1.02125101 -13.04948448 -0.05581814 0 0 Z " fill="#A900FE" transform="translate(251.625,270.6875)"/>
<path d="M0 0 C23.67559821 -0.53379996 44.46832926 6.69324848 62.015625 22.625 C77.39525268 37.35507937 86.88461906 57.13443158 87.4609375 78.5625 C87.78492757 103.89357065 82.37312278 125.94920548 64.52563477 144.94458008 C49.00552213 160.78753223 28.46375724 169.09195726 6.46435547 169.36279297 C-19.20598933 169.42797532 -40.95483876 162.64963763 -59.7421875 144.68359375 C-77.61238113 125.8073744 -82.30660239 103.08522481 -82.01171875 77.98828125 C-81.4156625 56.46565905 -71.97235824 37.87147444 -57.3046875 22.30859375 C-41.40711617 7.31841804 -21.42605142 0.94616466 0 0 Z " fill="#AA00FE" transform="translate(247.7421875,90.87890625)"/>
<path d="M0 0 C1.65 0.33 3.3 0.66 5 1 C5.34993652 4.22400532 5.21311008 5.67270501 3.41796875 8.4296875 C-6.54840426 19.35604391 -20.05415548 28.24153368 -35.19921875 29.203125 C-46.24397394 29.35154276 -54.09383708 28.43044022 -62.40625 20.81640625 C-64.04861791 18.94458988 -65.08617323 17.31282961 -66 15 C-65.625 12.75 -65.625 12.75 -65 11 C-63.68 10.67 -62.36 10.34 -61 10 C-60.63648438 10.47050781 -60.27296875 10.94101563 -59.8984375 11.42578125 C-55.49417235 16.88029425 -51.16113814 20.1862343 -44 21 C-30.36550219 22.28143776 -19.12131504 16.7218356 -8.25 9.0625 C-5.21069075 6.27646652 -2.60643859 3.18863278 0 0 Z " fill="#FDFAFF" transform="translate(282,208)"/>
<path d="M0 0 C1.65 0.33 3.3 0.66 5 1 C4.67 2.32 4.34 3.64 4 5 C2.35 4.67 0.7 4.34 -1 4 C-0.67 2.68 -0.34 1.36 0 0 Z " fill="#F0D4FF" transform="translate(213,180)"/>
<path d="M0 0 C1.98 0.495 1.98 0.495 4 1 C3.67 2.65 3.34 4.3 3 6 C1.68 5.67 0.36 5.34 -1 5 C-0.67 3.35 -0.34 1.7 0 0 Z " fill="#F1D5FF" transform="translate(277,174)"/>
</svg>
