<?xml version="1.0" encoding="UTF-8"?>
<svg version="1.1" xmlns="http://www.w3.org/2000/svg" width="512" height="512">
<path d="M0 0 C0.91223328 -0.00067474 1.82446655 -0.00134949 2.76434326 -0.00204468 C17.14667836 0.01482452 31.13758525 0.6352099 45.3125 3.25 C46.22950684 3.41097168 47.14651367 3.57194336 48.09130859 3.73779297 C95.59947162 12.28089155 139.31248987 34.84753489 174.48828125 67.671875 C176.45265242 69.4650769 178.40999596 71.17194226 180.46484375 72.8515625 C182.75372708 74.7793737 184.65360591 76.5943739 186.5625 78.875 C188.50375892 81.16382056 190.45622424 83.40134213 192.5234375 85.578125 C205.16006094 98.90996721 215.16282031 114.38342095 224.3125 130.25 C224.7038916 130.92289063 225.0952832 131.59578125 225.49853516 132.2890625 C246.96100767 169.59919793 256.80718999 212.58481112 256.625 255.375 C256.62226578 256.71712555 256.62226578 256.71712555 256.61947632 258.08636475 C256.57080171 272.32820544 255.90140432 286.21541345 253.3125 300.25 C253.15152832 301.16700684 252.99055664 302.08401367 252.82470703 303.02880859 C248.62090505 326.40614736 240.82302504 348.97446941 230.3125 370.25 C229.98427246 370.9188623 229.65604492 371.58772461 229.31787109 372.27685547 C219.16045589 392.73082854 205.80422991 411.82313092 190.0625 428.34765625 C187.65623711 430.88722064 185.34823203 433.47765802 183.0625 436.125 C180.12204903 439.44350895 177.05932964 442.40825262 173.66796875 445.26171875 C171.87400939 446.77602275 170.11114214 448.32724407 168.36328125 449.89453125 C126.6871716 487.05940553 68.591726 511.15859526 12.51953125 511.453125 C11.61912613 511.46018463 10.71872101 511.46724426 9.79103088 511.47451782 C-27.62171111 511.70129711 -27.62171111 511.70129711 -44.6875 508.25 C-45.68700684 508.05664062 -46.68651367 507.86328125 -47.71630859 507.6640625 C-88.18384664 499.66559837 -125.29337583 482.71753852 -157.6875 457.25 C-158.63753906 456.51394531 -159.58757812 455.77789062 -160.56640625 455.01953125 C-172.48441567 445.55261766 -183.92812262 434.94037719 -193.6875 423.25 C-194.12980957 422.72535156 -194.57211914 422.20070313 -195.02783203 421.66015625 C-207.83127857 406.39467488 -218.46812292 389.89344776 -227.6875 372.25 C-228.05939453 371.55487305 -228.43128906 370.85974609 -228.81445312 370.14355469 C-240.97732 347.20142749 -248.95569975 320.89036913 -252.6875 295.25 C-252.86933838 294.02297363 -253.05117676 292.79594727 -253.23852539 291.53173828 C-254.86786548 279.73732282 -255.04639951 268.01679766 -255 256.125 C-254.99784485 255.13043793 -254.9956897 254.13587585 -254.99346924 253.11117554 C-254.94310229 238.62834894 -254.58384203 224.48510133 -251.6875 210.25 C-251.49414062 209.25194336 -251.30078125 208.25388672 -251.1015625 207.22558594 C-243.21728844 167.32969916 -226.70608486 128.74618167 -200.6875 97.25 C-200.05062256 96.47100342 -200.05062256 96.47100342 -199.40087891 95.67626953 C-189.97914101 84.17554023 -180.17042654 72.73774152 -168.6875 63.25 C-167.79417969 62.45722656 -166.90085937 61.66445313 -165.98046875 60.84765625 C-128.68022024 27.9236166 -79.92148134 7.13755235 -30.6875 1.25 C-29.93057861 1.1557373 -29.17365723 1.06147461 -28.39379883 0.96435547 C-18.95995009 -0.05794199 -9.47788613 0.00630477 0 0 Z " fill="#458ACA" transform="translate(254.6875,0.75)"/>
<path d="M0 0 C0.83776978 0.00281982 1.67553955 0.00563965 2.53869629 0.00854492 C14.6319573 0.06967151 26.42926455 0.2022107 38.1875 3.3125 C39.65388916 3.69970215 39.65388916 3.69970215 41.14990234 4.09472656 C70.33466466 12.04580225 95.29952966 24.52468546 118.1875 44.3125 C119.16847656 45.15167969 120.14945312 45.99085937 121.16015625 46.85546875 C126.28774024 51.34887192 130.8694674 56.04347212 135.1875 61.3125 C135.62320312 61.83054199 136.05890625 62.34858398 136.5078125 62.88232422 C153.31351515 82.88403115 166.0849911 106.38586425 172.875 131.6875 C173.16056763 132.74578003 173.16056763 132.74578003 173.4519043 133.82543945 C174.08511687 136.31162036 174.64626451 138.8045546 175.1875 141.3125 C175.58134888 143.13201172 175.58134888 143.13201172 175.9831543 144.98828125 C178.26112655 156.20243439 178.70697107 167.14308661 178.625 178.5625 C178.62043793 179.91412735 178.62043793 179.91412735 178.61578369 181.2930603 C178.54898641 194.68175882 177.86584149 207.37018736 174.1875 220.3125 C173.96787598 221.13862793 173.74825195 221.96475586 173.52197266 222.81591797 C165.29832376 253.64441634 150.68527251 279.76065151 129.1875 303.3125 C128.44113281 304.13105469 127.69476563 304.94960938 126.92578125 305.79296875 C120.62445544 312.37383581 113.45385026 317.8524127 106.1875 323.3125 C105.34316406 323.951875 104.49882812 324.59125 103.62890625 325.25 C66.28892195 352.45214708 18.38462559 363.45984964 -27.11157227 356.65307617 C-57.36652487 351.71649352 -85.41992841 340.04882311 -109.8125 321.3125 C-110.66070312 320.67054688 -111.50890625 320.02859375 -112.3828125 319.3671875 C-149.41121745 290.2971263 -173.16149194 246.61253927 -179.09814453 200.07324219 C-183.20214563 163.50219794 -176.71756149 126.5749796 -158.8125 94.3125 C-158.15706519 93.09140705 -157.50211644 91.87005308 -156.84765625 90.6484375 C-144.69097827 68.32347836 -127.04958317 49.46891365 -106.8125 34.3125 C-105.96945313 33.67441406 -105.12640625 33.03632812 -104.2578125 32.37890625 C-73.65742825 10.07256554 -37.55484689 -0.18320349 0 0 Z " fill="#FDFDFE" transform="translate(256.8125,76.6875)"/>
<path d="M0 0 C23.1 0 46.2 0 70 0 C72.51902629 11.3356183 74.71127176 21.82398938 75.75 33.25 C75.87503906 34.50167969 76.00007813 35.75335938 76.12890625 37.04296875 C76.65070962 42.41582322 77 47.5900566 77 53 C51.59 53 26.18 53 0 53 C0 35.51 0 18.02 0 0 Z " fill="#498CCB" transform="translate(266,193)"/>
<path d="M0 0 C22.77 0 45.54 0 69 0 C69 17.49 69 34.98 69 53 C43.92 53 18.84 53 -7 53 C-7 44.78806871 -6.75883812 37.18764095 -5.6875 29.125 C-5.48664795 27.56616089 -5.48664795 27.56616089 -5.28173828 25.97583008 C-4.11230761 17.21192286 -2.80399702 8.41199105 0 0 Z " fill="#478BCA" transform="translate(177,193)"/>
<path d="M0 0 C25.08 0 50.16 0 76 0 C76 17.16 76 34.32 76 52 C53.23 52 30.46 52 7 52 C4.90932526 45.72797579 3.89579667 39.82381614 2.9375 33.3125 C2.76412109 32.21099609 2.59074219 31.10949219 2.41210938 29.97460938 C0.91127568 19.89429727 0.54313525 10.31956977 0 0 Z " fill="#458ACA" transform="translate(170,266)"/>
<path d="M0 0 C24.75 0 49.5 0 75 0 C75 12.08857439 74.64551777 22.74318983 72.5625 34.4375 C72.32878713 35.82335061 72.09636314 37.2094192 71.86523438 38.59570312 C70.21267219 48.36198344 70.21267219 48.36198344 69 52 C46.23 52 23.46 52 0 52 C0 34.84 0 17.68 0 0 Z " fill="#458ACA" transform="translate(267,266)"/>
<path d="M0 0 C20.79 0 41.58 0 63 0 C57.2550436 25.85230382 40.72218498 53.13323099 18.3125 68.0625 C6.52565299 75 6.52565299 75 0 75 C0 50.25 0 25.5 0 0 Z " fill="#478BCA" transform="translate(266,338)"/>
<path d="M0 0 C11.12397866 1.85399644 19.68231731 7.58918561 28 15 C28.99580078 15.87205078 28.99580078 15.87205078 30.01171875 16.76171875 C39.97764568 26.08077009 47.06670787 37.58791874 53.375 49.5625 C53.86258789 50.48297119 54.35017578 51.40344238 54.85253906 52.35180664 C58.6724423 59.81768281 61.12092263 66.93858338 64 75 C42.88 75 21.76 75 0 75 C0 50.25 0 25.5 0 0 Z " fill="#478BCA" transform="translate(266,98)"/>
<path d="M0 0 C20.79 0 41.58 0 63 0 C63 24.75 63 49.5 63 75 C45.15178662 72.02529777 31.31384421 58.16049939 21 44 C15.57223474 36.17361224 11.25099934 27.75506592 7.125 19.1875 C6.75552246 18.42356934 6.38604492 17.65963867 6.00537109 16.87255859 C3.37880173 11.2552571 1.82126419 6.07088063 0 0 Z " fill="#468ACA" transform="translate(183,338)"/>
<path d="M0 0 C0 24.75 0 49.5 0 75 C-20.79 75 -41.58 75 -63 75 C-60.80945913 67.69819709 -58.6778077 61.55034287 -55.4375 54.8125 C-55.00058838 53.90266357 -54.56367676 52.99282715 -54.11352539 52.05541992 C-48.02385618 39.66564173 -40.6335372 28.91480836 -31 19 C-30.35546875 18.29359375 -29.7109375 17.5871875 -29.046875 16.859375 C-22.166965 9.53199118 -10.57732127 0 0 0 Z " fill="#458ACA" transform="translate(246,98)"/>
<path d="M0 0 C15.51 0 31.02 0 47 0 C54.16774579 19.45531001 57.73293877 32.72702035 59 53 C41.84 53 24.68 53 7 53 C5.1875 34.9375 5.1875 34.9375 4.63745117 29.33959961 C4.48152947 27.81878886 4.32506789 26.29803332 4.16796875 24.77734375 C4.09694946 24.03359497 4.02593018 23.28984619 3.95275879 22.52355957 C3.14490864 14.83268123 1.54031708 7.7015854 0 0 Z " fill="#498CCB" transform="translate(356,193)"/>
<path d="M0 0 C17.16 0 34.32 0 52 0 C52.99 12.375 52.99 12.375 54 25 C54.63230492 29.33151949 55.26968171 33.5390764 56.125 37.8125 C56.48461572 39.69346874 56.84150979 41.57496044 57.1953125 43.45703125 C57.35016113 44.24053955 57.50500977 45.02404785 57.66455078 45.83129883 C58 48 58 48 58 52 C42.82 52 27.64 52 12 52 C7.12127884 40.29106922 3.25257299 29.59359591 1.25 17.1875 C1.12222168 16.39915771 0.99444336 15.61081543 0.86279297 14.79858398 C0.09948859 9.70183641 0 5.29663373 0 0 Z " fill="#458ACA" transform="translate(98,266)"/>
<path d="M0 0 C1.22244667 0.00333092 1.22244667 0.00333092 2.46958923 0.00672913 C3.85090782 0.00684242 3.85090782 0.00684242 5.26013184 0.00695801 C6.2611644 0.01211929 7.26219696 0.01728058 8.29356384 0.02259827 C9.31316696 0.02401321 10.33277008 0.02542816 11.38327026 0.02688599 C14.65417867 0.03250355 17.92501972 0.04505902 21.19590759 0.05775452 C23.40749515 0.06276725 25.61908377 0.06733055 27.83067322 0.07142639 C33.26494116 0.08247868 38.69916957 0.09923389 44.13340759 0.12025452 C43.97759801 1.56894885 43.82033843 3.01748728 43.66246033 4.46595764 C43.57504074 5.27262878 43.48762115 6.07929993 43.39755249 6.91041565 C43.12524326 9.18855742 42.71577893 11.38609671 42.19590759 13.62025452 C39.56713773 26.29327939 38.93880063 39.23396599 38.13340759 52.12025452 C20.97340759 52.12025452 3.81340759 52.12025452 -13.86659241 52.12025452 C-13.86659241 40.84603062 -13.86659241 40.84603062 -12.98377991 36.49134827 C-12.69132385 35.04417419 -12.69132385 35.04417419 -12.39295959 33.56776428 C-12.17800842 32.57446106 -11.96305725 31.58115784 -11.74159241 30.55775452 C-11.52148499 29.51868958 -11.30137756 28.47962463 -11.07460022 27.40907288 C-5.09602823 0.32830971 -5.09602823 0.32830971 0 0 Z " fill="#468ACA" transform="translate(111.86659240722656,192.87974548339844)"/>
<path d="M0 0 C17.16 0 34.32 0 52 0 C49.78448001 19.93967995 46.98764952 33.03352274 40 52 C24.82 52 9.64 52 -6 52 C-5.41856658 45.02279902 -4.93512033 39.38101244 -3.51269531 32.78613281 C-2.39410929 26.70741675 -1.95196382 20.52413126 -1.375 14.375 C-0.92125 9.63125 -0.4675 4.8875 0 0 Z " fill="#458ACA" transform="translate(363,266)"/>
<path d="M0 0 C13.53 0 27.06 0 41 0 C42.155 3.3 43.31 6.6 44.5 10 C47.99665986 19.74110679 52.0295746 28.92968916 57 38 C57.35126953 38.64501465 57.70253906 39.2900293 58.06445312 39.95458984 C61.34771721 45.94461021 64.59230854 51.74392545 69 57 C68.34 58.32 67.68 59.64 67 61 C61.59655215 59.48429434 57.17950465 56.97530158 52.4375 54.0625 C51.64537109 53.57668457 50.85324219 53.09086914 50.03710938 52.59033203 C42.74359369 48.01345931 36.36996454 42.76494755 30 37 C29.14277344 36.27425781 28.28554687 35.54851562 27.40234375 34.80078125 C16.66992648 25.59913665 7.01819039 14.30247493 0 2 C0 1.34 0 0.68 0 0 Z " fill="#488CCB" transform="translate(121,338)"/>
<path d="M0 0 C13.53 0 27.06 0 41 0 C35.55373532 10.89252936 27.80693479 19.88180381 19.38867188 28.56005859 C18.1729452 29.8206697 16.98266512 31.10572036 15.796875 32.39453125 C4.30283682 44.56856024 -10.07694418 53.62010806 -25 61 C-25.66 61 -26.32 61 -27 61 C-27.61303711 59.20800781 -27.61303711 59.20800781 -28 57 C-26.61261479 54.44697149 -25.18926434 52.14194394 -23.5625 49.75 C-15.36584169 37.16515886 -9.38216148 23.98770538 -4 10 C-2.68 6.7 -1.36 3.4 0 0 Z " fill="#488CCA" transform="translate(351,338)"/>
<path d="M0 0 C0.99 0.66 1.98 1.32 3 2 C1.55237802 6.09534509 -0.47703499 9.30665835 -2.9375 12.875 C-7.06118159 19.09760739 -10.44959439 25.59135065 -13.6875 32.3125 C-14.12634521 33.21145996 -14.56519043 34.11041992 -15.01733398 35.03662109 C-19.05004039 43.56610026 -21.80942795 51.96004586 -25 61 C-38.53 61 -52.06 61 -66 61 C-61.8457017 50.61425426 -53.63411938 42.04095333 -46 34 C-45.53110352 33.49855469 -45.06220703 32.99710938 -44.57910156 32.48046875 C-31.61015885 18.6805064 -16.92184931 8.46092465 0 0 Z " fill="#478BCA" transform="translate(187,112)"/>
<path d="M0 0 C5.81023657 0.2882598 9.90070611 2.98859449 14.6875 6 C15.48478516 6.4954834 16.28207031 6.9909668 17.10351562 7.50146484 C23.51354265 11.55257073 29.33460601 15.94805631 35 21 C35.87140625 21.763125 36.7428125 22.52625 37.640625 23.3125 C45.43606778 30.22103611 52.46505866 37.24419529 58.75 45.5625 C59.31332031 46.29146484 59.87664062 47.02042969 60.45703125 47.77148438 C63.54006308 51.82024131 65.67092058 55.34184115 68 60 C54.47 60 40.94 60 27 60 C25.515 56.205 24.03 52.41 22.5 48.5 C17.03655399 34.76356443 11.21182518 21.75763244 2.88061523 9.51293945 C-0.63727173 4.3031425 -0.63727173 4.3031425 -1 1 C-0.67 0.67 -0.34 0.34 0 0 Z " fill="#478BCA" transform="translate(324,113)"/>
</svg>
