<?xml version="1.0" encoding="UTF-8"?>
<svg version="1.1" xmlns="http://www.w3.org/2000/svg" width="626" height="626">
<path d="M0 0 C206.58 0 413.16 0 626 0 C626 206.58 626 413.16 626 626 C419.42 626 212.84 626 0 626 C0 419.42 0 212.84 0 0 Z " fill="#000000" transform="translate(0,0)"/>
<path d="M0 0 C13.2813977 -0.55849244 26.55996607 -0.98365536 39.85075378 -1.24349213 C46.02453878 -1.36828224 52.19024375 -1.5371114 58.359375 -1.81054688 C101.0627207 -3.65458665 101.0627207 -3.65458665 109.2509613 3.60684967 C113.90357936 8.6213462 116.43938892 14.52095925 118.70622253 20.88427734 C120.91620793 26.20644577 124.48197739 30.48475006 128 35 C129.06713671 36.51303247 130.12519996 38.03257148 131.16796875 39.5625 C131.66184082 40.28655029 132.15571289 41.01060059 132.66455078 41.7565918 C133.16712402 42.4969165 133.66969727 43.23724121 134.1875 44 C135.31376304 45.65237036 136.4400663 47.30471331 137.56640625 48.95703125 C138.4174292 50.20734131 138.4174292 50.20734131 139.28564453 51.48291016 C142.05929572 55.55530317 144.84211261 59.62141535 147.625 63.6875 C148.16817871 64.48124023 148.71135742 65.27498047 149.27099609 66.09277344 C150.84700505 68.39540548 152.42340206 70.6977712 154 73 C154.45552246 73.66531738 154.91104492 74.33063477 155.38037109 75.01611328 C161.84873847 84.45882804 168.37806856 93.85818807 174.92114258 103.24926758 C181.33451055 112.4628709 187.68007112 121.72212104 194 131 C202.45304586 122.63950573 210.40960096 113.88372205 217.85546875 104.61328125 C219.99874956 102.00152377 222.2238033 99.49634698 224.5 97 C228.43596186 92.68070968 232.13162101 88.20432449 235.80859375 83.6640625 C239.09181916 79.67269043 242.54486742 75.84222212 246 72 C251.88589496 65.35372627 257.64342268 58.59640788 263.41503906 51.85107422 C264.96011515 50.04658148 266.50702979 48.24368504 268.0546875 46.44140625 C269.05734293 45.27348151 270.05994736 44.10551298 271.0625 42.9375 C271.805 42.0724585 271.805 42.0724585 272.5625 41.18994141 C275.48987323 37.77499194 278.39871187 34.34525054 281.29516602 30.90405273 C285.00442377 26.49756119 288.74745145 22.13559927 292.625 17.875 C296.63698446 13.46543149 300.41342475 8.89232624 304.15234375 4.25 C306 2 306 2 308 0 C310.98095703 -0.22705078 310.98095703 -0.22705078 314.7578125 -0.1953125 C315.75238968 -0.19106766 315.75238968 -0.19106766 316.76705933 -0.18673706 C318.88655583 -0.17553435 321.00563104 -0.15043051 323.125 -0.125 C324.56119182 -0.11497028 325.99739025 -0.10584441 327.43359375 -0.09765625 C330.95586628 -0.075595 334.47789203 -0.04106494 338 0 C338 0.66 338 1.32 338 2 C337.34 2 336.68 2 336 2 C335.76410156 2.55558594 335.52820313 3.11117187 335.28515625 3.68359375 C333.6872248 6.56375591 331.694995 8.66369076 329.4375 11.0625 C326.05954445 14.69926772 322.80703736 18.38523983 319.6875 22.25 C314.49791961 28.6730194 309.06759444 34.87647979 303.64648438 41.10351562 C301.06362566 44.07855218 298.49946602 47.06947036 295.9375 50.0625 C295.44588379 50.63661621 294.95426758 51.21073242 294.44775391 51.80224609 C292.96481751 53.53453008 291.48232673 55.2671943 290 57 C283.31098326 64.81930603 276.60251244 72.62065546 269.85791016 80.39208984 C264.70838251 86.32888478 259.59299766 92.29453455 254.48388672 98.26611328 C251.4937937 101.75996663 248.50024355 105.25086021 245.50634766 108.74145508 C242.96529167 111.70463683 240.42724353 114.67030706 237.89453125 117.640625 C233.42459061 122.87776795 228.9470481 128.09432474 224.3125 133.1875 C215.67677884 142.4031367 215.67677884 142.4031367 209 153 C209.34554932 153.49064941 209.69109863 153.98129883 210.04711914 154.48681641 C218.90433054 167.07437426 227.62704778 179.74748289 236.28076172 192.47558594 C240.07053846 198.04023966 243.89230513 203.5829094 247.71142578 209.12744141 C248.99573734 210.9938055 250.27755351 212.86185805 251.55859375 214.73046875 C256.96531963 222.6136736 262.41033661 230.46933669 267.875 238.3125 C275.51337559 249.27828002 283.06946832 260.2983784 290.59570312 271.34130859 C296.63648995 280.20247493 302.71000562 289.03718036 308.875 297.8125 C315.73389206 307.57786429 322.45679198 317.43285845 329.1640625 327.30273438 C332.63451141 332.4013407 336.12355571 337.48725094 339.61352539 342.57250977 C342.21301794 346.36591302 344.80065554 350.16731357 347.37109375 353.98046875 C347.87439209 354.72578857 348.37769043 355.4711084 348.89624023 356.23901367 C350 358 350 358 350 359 C336.7186023 359.55849244 323.44003393 359.98365536 310.14924622 360.24349213 C303.97546122 360.36828224 297.80975625 360.5371114 291.640625 360.81054688 C248.9372793 362.65458665 248.9372793 362.65458665 240.7490387 355.39315033 C236.09628147 350.3785038 233.56062493 344.47871482 231.29350281 338.11531067 C229.08360047 332.79291608 225.51670288 328.51633167 222 324 C220.90931449 322.4518813 219.8278709 320.89714658 218.76171875 319.33203125 C218.00604614 318.22359863 218.00604614 318.22359863 217.23510742 317.09277344 C216.72439697 316.3402832 216.21368652 315.58779297 215.6875 314.8125 C214.55221594 313.14704501 213.4167973 311.48168176 212.28125 309.81640625 C211.44787109 308.59268311 211.44787109 308.59268311 210.59765625 307.34423828 C208.30123259 303.97469977 205.99667122 300.61081262 203.6875 297.25 C203.25171631 296.61570068 202.81593262 295.98140137 202.36694336 295.32788086 C198.35182042 289.49361762 194.29991567 283.68513834 190.25 277.875 C182.99817909 267.46860252 175.84309068 256.9985237 168.70898438 246.51123047 C159.61489604 233.06940457 159.61489604 233.06940457 150 220 C149.16597656 220.96679688 148.33195313 221.93359375 147.47265625 222.9296875 C137.25150004 234.75989871 137.25150004 234.75989871 132.25 240.25 C128.51497567 244.37070619 125.00342585 248.63979156 121.50390625 252.9609375 C116.99370452 258.4350981 112.3034171 263.75426306 107.64648438 269.10351562 C105.06362517 272.07855274 102.49953438 275.06952823 99.9375 278.0625 C99.44878418 278.63299072 98.96006836 279.20348145 98.45654297 279.79125977 C95.93397698 282.7370276 93.41483037 285.6856762 90.8984375 288.63671875 C86.42689516 293.87489173 81.94827526 299.09297615 77.3125 304.1875 C73.55484695 308.32831267 70.02234062 312.61643593 66.50390625 316.9609375 C62.54026644 321.77172029 58.43350845 326.45616059 54.33984375 331.15625 C50.66206293 335.38019356 47.02248904 339.63645038 43.3972168 343.90551758 C42.4771742 344.98391862 41.54321351 346.05056327 40.59741211 347.10644531 C38.89255754 349.06652363 38.89255754 349.06652363 37.18579102 351.62011719 C34.00527832 355.85380708 31.75854699 358.60223053 26.46728516 359.79907227 C22.40896541 359.98335699 18.48555525 359.87851167 14.4375 359.625 C13.03336298 359.57474224 11.62905155 359.52913181 10.22460938 359.48828125 C6.81189658 359.3710059 3.40824097 359.20713947 0 359 C3.40362564 354.34627056 6.86283531 349.89916566 10.8125 345.6875 C14.89898555 341.25439291 18.74323642 336.69223996 22.53125 332.00390625 C27.02422836 326.5369753 31.70746063 321.23324209 36.35351562 315.89648438 C38.93637434 312.92144782 41.50053398 309.93052964 44.0625 306.9375 C44.55411621 306.36338379 45.04573242 305.78926758 45.55224609 305.19775391 C47.03518249 303.46546992 48.51767327 301.7328057 50 300 C56.68901674 292.18069397 63.39748756 284.37934454 70.14208984 276.60791016 C75.29161749 270.67111522 80.40700234 264.70546545 85.51611328 258.73388672 C88.00895524 255.82105954 90.50462766 252.91065939 93 250 C94.0000134 248.83334482 95.00001341 247.66667816 96 246.5 C98 244.16666667 100 241.83333333 102 239.5 C102.74237915 238.63387085 102.74237915 238.63387085 103.49975586 237.75024414 C104.50051606 236.58271772 105.50132992 235.4152373 106.50219727 234.24780273 C108.99100676 231.34466371 111.47890091 228.44075051 113.96484375 225.53515625 C121.27539276 216.99338215 128.62844937 208.48917283 136 200 C131.39200662 192.66934183 126.64847673 185.4519334 121.75 178.3125 C121.09741211 177.35843262 120.44482422 176.40436523 119.77246094 175.42138672 C117.85042408 172.61279976 115.92577413 169.80602537 114 167 C113.47792969 166.23896973 112.95585937 165.47793945 112.41796875 164.69384766 C109.71204324 160.75074528 107.00136474 156.81094003 104.28857422 152.87255859 C103.00426266 151.0061945 101.72244649 149.13814195 100.44140625 147.26953125 C95.07709343 139.44825057 89.67368889 131.655233 84.25 123.875 C77.59268788 114.32182831 71.01338386 104.71779831 64.46484375 95.08984375 C60.09659201 88.66763788 55.69447286 82.26896454 51.28857422 75.87255859 C50.00426266 74.0061945 48.72244649 72.13814195 47.44140625 70.26953125 C41.35288125 61.39223825 35.21220294 52.55214638 29.05737305 43.72070312 C24.17717103 36.71109529 19.34442545 29.6706359 14.54077148 22.60839844 C10.7572684 17.06141335 6.88288351 11.5860793 2.89306641 6.18530273 C0 2.21508246 0 2.21508246 0 0 Z " fill="#FBFBFB" transform="translate(138,133)"/>
<path d="M0 0 C6.44069344 -0.20324114 12.88055772 -0.34309941 19.32373047 -0.43945312 C21.51414894 -0.47962646 23.70435365 -0.53417819 25.89404297 -0.60351562 C29.04708567 -0.70084059 32.19728932 -0.74598674 35.3515625 -0.78125 C36.8144017 -0.84318542 36.8144017 -0.84318542 38.30679321 -0.90637207 C44.9832489 -0.91075472 44.9832489 -0.91075472 47.90174866 1.70349121 C49.44364179 3.73848035 50.73370873 5.78539579 52 8 C52.85790888 9.24692957 53.72484094 10.48776029 54.60546875 11.71875 C55.46788825 12.97797509 56.32851206 14.23843156 57.1875 15.5 C58.15229047 16.91019271 59.11713574 18.32034792 60.08203125 19.73046875 C60.56752441 20.44122559 61.05301758 21.15198242 61.55322266 21.88427734 C63.81975037 25.19877771 66.09802669 28.50517142 68.375 31.8125 C71.26352637 36.01085565 74.14696949 40.21257658 77.01953125 44.421875 C82.97234356 53.14332937 88.96214658 61.83714947 95 70.5 C101.52189519 79.85814319 107.98740709 89.25286315 114.41455078 98.67626953 C119.26805268 105.78985608 124.13425207 112.89478649 129 120 C129.45552246 120.66531738 129.91104492 121.33063477 130.38037109 122.01611328 C136.86033611 131.47575862 143.40160939 140.89180703 149.95629883 150.29980469 C154.69764657 157.11139722 159.39832188 163.94933113 164.07250977 170.80712891 C167.61228356 175.99301939 171.19265549 181.14902071 174.7902832 186.29492188 C181.07913301 195.29049021 187.25723675 204.34537054 193.3125 213.5 C198.10779718 220.74815383 202.99828085 227.87473712 208.20043945 234.83618164 C212.16272856 240.15542933 215.82246327 245.65140996 219.47265625 251.1875 C223.43535044 257.19111322 227.54372398 263.09544745 231.63085938 269.01464844 C232.94964251 270.92697804 234.26469238 272.84180506 235.578125 274.7578125 C236.00641602 275.38228271 236.43470703 276.00675293 236.87597656 276.65014648 C237.75062921 277.92549165 238.62497801 279.20104525 239.49902344 280.47680664 C242.39004845 284.68664381 245.31216133 288.87346065 248.25 293.05078125 C248.98323486 294.09613037 249.71646973 295.14147949 250.47192383 296.21850586 C251.93399686 298.30149673 253.39990434 300.3818021 254.86987305 302.45922852 C255.53543213 303.40854248 256.20099121 304.35785645 256.88671875 305.3359375 C257.48701904 306.18720215 258.08731934 307.0384668 258.70581055 307.91552734 C260 310 260 310 260 312 C220.34718567 315.47426778 220.34718567 315.47426778 210.52636719 310.09863281 C205.46522447 305.23642519 202.75657323 299.3039843 200.20361328 292.84667969 C198.43997403 288.6754761 195.93211756 285.24602002 193.25 281.625 C192.36486535 280.34975943 191.48457672 279.07114043 190.609375 277.7890625 C190.18076172 277.16676758 189.75214844 276.54447266 189.31054688 275.90332031 C187.03844939 272.60353044 184.76942087 269.30163099 182.5 266 C181.58334714 264.66665718 180.66668049 263.33332383 179.75 262 C163.25 238 163.25 238 161.8762207 236.00170898 C160.95556784 234.66262209 160.03483159 233.32359253 159.11401367 231.98461914 C156.88266308 228.73976998 154.65256052 225.49408198 152.42578125 222.24609375 C147.77311463 215.46351247 143.09657518 208.69855841 138.39086914 201.95263672 C131.25989276 191.72900848 124.21376476 181.45220049 117.22070312 171.13378906 C112.26906468 163.83819322 107.24252397 156.59983185 102.16967773 149.38818359 C95.95078261 140.53407285 89.87389738 131.5842371 83.79199219 122.63574219 C76.29635981 111.61083113 68.74979779 100.62352337 61.125 89.6875 C53.89849127 79.32273093 46.77152301 68.89258456 39.66503906 58.4453125 C32.83889496 48.42028914 25.92985615 38.45352865 19 28.5 C8.65244196 13.63219937 8.65244196 13.63219937 4.5 7.625 C4.03722656 6.95919922 3.57445312 6.29339844 3.09765625 5.60742188 C0 1.11533781 0 1.11533781 0 0 Z " fill="#000000" transform="translate(183,157)"/>
<path d="M0 0 C6.4410614 -0.19811617 12.88034174 -0.34309618 19.32373047 -0.43945312 C21.51414894 -0.47962646 23.70435365 -0.53417819 25.89404297 -0.60351562 C29.04708567 -0.70084059 32.19728932 -0.74598674 35.3515625 -0.78125 C36.8144017 -0.84318542 36.8144017 -0.84318542 38.30679321 -0.90637207 C44.98458018 -0.91075559 44.98458018 -0.91075559 47.9274292 1.72875977 C49.46887596 3.75678061 50.76270116 5.77588622 52 8 C52.928125 9.485 52.928125 9.485 53.875 11 C54.24625 11.66 54.6175 12.32 55 13 C54.01 13 53.02 13 52 13 C50.36333948 10.78648372 49.06287472 8.45403537 47.6953125 6.06640625 C45.4835817 3.37054083 44.43758395 3.44426464 41 3 C38.20309744 2.91800267 35.43263994 2.88339731 32.63671875 2.90234375 C31.44874443 2.90446617 31.44874443 2.90446617 30.23677063 2.90663147 C27.72030781 2.91220543 25.20393569 2.92475307 22.6875 2.9375 C20.97591275 2.94251837 19.26432409 2.94708069 17.55273438 2.95117188 C13.36845492 2.96216632 9.18424281 2.97941293 5 3 C5.99 4.98 6.98 6.96 8 9 C7.01 9.495 7.01 9.495 6 10 C4.02 6.7 2.04 3.4 0 0 Z " fill="#040404" transform="translate(183,157)"/>
<path d="M0 0 C0.99 0.33 1.98 0.66 3 1 C3.66 2.65 4.32 4.3 5 6 C-10.18 6 -25.36 6 -41 6 C-41 5.01 -41 4.02 -41 3 C-27.47 2.67 -13.94 2.34 0 2 C0 1.34 0 0.68 0 0 Z " fill="#282828" transform="translate(438,463)"/>
<path d="M0 0 C2.92746334 2.77741931 5.24630978 5.61085151 7.49609375 8.95703125 C8.13740234 9.90513672 8.77871094 10.85324219 9.43945312 11.83007812 C10.09880859 12.81427734 10.75816406 13.79847656 11.4375 14.8125 C12.74799665 16.75698323 14.0591799 18.70100391 15.37109375 20.64453125 C15.98968262 21.56443848 16.60827148 22.4843457 17.24560547 23.43212891 C18.7811231 25.6796344 20.3604119 27.88158915 21.97265625 30.07421875 C24 33 24 33 24 35 C24.66 35 25.32 35 26 35 C26.82757813 36.48693359 26.82757813 36.48693359 27.671875 38.00390625 C30.01683674 42.1075893 32.60627985 46.02187378 35.25 49.9375 C35.70890625 50.62134766 36.1678125 51.30519531 36.640625 52.00976562 C37.75828351 53.67461112 38.87883719 55.3375124 40 57 C39.34 57.66 38.68 58.32 38 59 C37.40574219 58.1028125 36.81148437 57.205625 36.19921875 56.28125 C28.95958942 45.37373901 21.55878368 34.58258818 14.10546875 23.8203125 C8.91023614 16.30697627 3.81879791 8.76270517 -1 1 C-0.67 0.67 -0.34 0.34 0 0 Z " fill="#171717" transform="translate(204,185)"/>
<path d="M0 0 C13.56903635 -0.23179839 27.1376011 -0.40943251 40.70821476 -0.51812172 C47.00988297 -0.57029082 53.31019587 -0.64103614 59.61108398 -0.75439453 C65.69310736 -0.86312935 71.7738282 -0.92285829 77.85674858 -0.94877243 C80.17614693 -0.96723647 82.49547467 -1.00329503 84.8143177 -1.05730057 C103.00553002 -1.46408342 103.00553002 -1.46408342 107.97970581 2.18731689 C109.84622235 4.77703836 111.01420257 6.97584657 112 10 C112.495 11.485 112.495 11.485 113 13 C112.34 13.33 111.68 13.66 111 14 C109.82479354 12.40207898 108.66008753 10.79643092 107.5 9.1875 C106.52546875 7.84751953 106.52546875 7.84751953 105.53125 6.48046875 C104 4 104 4 104 1 C69.68 1 35.36 1 0 1 C0 0.67 0 0.34 0 0 Z " fill="#202020" transform="translate(138,131)"/>
<path d="M0 0 C3.34581412 4.07795698 6.40772687 8.31168752 9.4375 12.625 C9.95320557 13.35775146 10.46891113 14.09050293 11.00024414 14.84545898 C15.01257404 20.5615972 18.98617054 26.30405267 22.9375 32.0625 C23.73401978 33.22096436 23.73401978 33.22096436 24.54663086 34.40283203 C27.82262975 39.19477725 30.96512449 44.05181511 34 49 C33.01 49 32.02 49 31 49 C29.5625 47.375 29.5625 47.375 28 45 C27.38640625 44.08476562 26.7728125 43.16953125 26.140625 42.2265625 C25.43421875 41.16179687 24.7278125 40.09703125 24 39 C22.71787716 37.12399787 21.42763626 35.25374856 20.13671875 33.38378906 C18.72858062 31.34397207 17.32459242 29.30136041 15.921875 27.2578125 C15.44427734 26.56204102 14.96667969 25.86626953 14.47460938 25.14941406 C12.96680389 22.95161282 11.45993851 20.75316893 9.953125 18.5546875 C9.45844727 17.83361816 8.96376953 17.11254883 8.45410156 16.36962891 C7.50738567 14.98961088 6.56138489 13.60910191 5.61621094 12.22802734 C5.18598633 11.60105957 4.75576172 10.9740918 4.3125 10.328125 C3.91417969 9.74482422 3.51585937 9.16152344 3.10546875 8.56054688 C2.17095591 7.24133175 1.15574072 5.97985337 0.125 4.734375 C-0.24625 4.16203125 -0.6175 3.5896875 -1 3 C-0.67 2.01 -0.34 1.02 0 0 Z " fill="#191919" transform="translate(350,442)"/>
<path d="M0 0 C3.14806297 2.94563764 5.47136743 6.0107872 7.8125 9.625 C10.26643392 13.36905359 12.73284704 17.09135758 15.3125 20.75 C16.54194017 22.49980787 17.77106207 24.24983936 19 26 C19.45407227 26.64646484 19.90814453 27.29292969 20.37597656 27.95898438 C21.90141599 30.13592385 23.41993005 32.31756911 24.9375 34.5 C25.43483643 35.20737305 25.93217285 35.91474609 26.44458008 36.64355469 C30 41.77231791 30 41.77231791 30 44 C30.66 44 31.32 44 32 44 C32.495 45.98 32.495 45.98 33 48 C32.01 48.495 32.01 48.495 31 49 C29.9790625 47.45119141 29.9790625 47.45119141 28.9375 45.87109375 C22.2163339 35.71453408 15.34191301 25.67605958 8.34570312 15.70678711 C7.69408203 14.77616455 7.04246094 13.84554199 6.37109375 12.88671875 C5.5037561 11.65248169 5.5037561 11.65248169 4.61889648 10.39331055 C0 3.56492233 0 3.56492233 0 0 Z " fill="#151515" transform="translate(449,432)"/>
<path d="M0 0 C2.91471982 2.77989798 5.31710598 5.63832991 7.625 8.9375 C8.21539062 9.77152344 8.80578125 10.60554688 9.4140625 11.46484375 C10.94972958 13.91964162 12.01805185 16.28262863 13 19 C13.66 19 14.32 19 15 19 C15.30292969 19.56847656 15.60585938 20.13695312 15.91796875 20.72265625 C18.64933546 25.7567752 21.57936544 30.40657645 25 35 C24.34 35.66 23.68 36.32 23 37 C22.59273682 36.4016333 22.18547363 35.8032666 21.76586914 35.18676758 C14.21632223 24.09727231 6.66537207 13.009884 -1 2 C-0.67 1.34 -0.34 0.68 0 0 Z " fill="#171717" transform="translate(367,313)"/>
<path d="M0 0 C0.99 0.33 1.98 0.66 3 1 C-4.06037091 11.26647376 -4.06037091 11.26647376 -10.63769531 12.90771484 C-14.68604816 13.08049186 -18.58947456 12.96725164 -22.625 12.6875 C-24.02454485 12.63219933 -25.42430232 12.58203085 -26.82421875 12.53710938 C-30.22166717 12.40824064 -33.60801648 12.22815317 -37 12 C-37.33 11.34 -37.66 10.68 -38 10 C-37.13310547 10.01683838 -36.26621094 10.03367676 -35.37304688 10.05102539 C-32.12171262 10.09251422 -28.87351184 10.09316529 -25.62207031 10.06713867 C-24.2216225 10.06407741 -22.82104033 10.07677123 -21.42089844 10.10620117 C-12.84098279 10.39675194 -12.84098279 10.39675194 -5.24609375 6.92529297 C-3.27249545 4.70499488 -1.57092451 2.51774388 0 0 Z " fill="#404040" transform="translate(176,482)"/>
<path d="M0 0 C3.53853274 3.2470289 6.09690532 6.93054976 8.6875 10.9375 C11.29277444 14.92809931 13.90148728 18.9019982 16.6875 22.76953125 C17.10813721 23.35677979 17.52877441 23.94402832 17.9621582 24.54907227 C19.12825079 26.16775468 20.304107 27.77939016 21.48046875 29.390625 C21.98191406 30.25171875 22.48335938 31.1128125 23 32 C22.67 32.99 22.34 33.98 22 35 C0 5.26915888 0 5.26915888 0 0 Z " fill="#171717" transform="translate(360,348)"/>
<path d="M0 0 C0.99 0.33 1.98 0.66 3 1 C2.38511719 1.66386719 1.77023437 2.32773438 1.13671875 3.01171875 C0.32847656 3.89472656 -0.47976563 4.77773437 -1.3125 5.6875 C-2.11300781 6.55761719 -2.91351563 7.42773438 -3.73828125 8.32421875 C-6.01858446 10.86851998 -6.01858446 10.86851998 -7.48046875 13.51953125 C-9.3005588 16.49062941 -11.49442417 18.58324813 -14 21 C-15.78177709 22.92744062 -17.5526926 24.86497981 -19.3125 26.8125 C-20.19550781 27.78832031 -21.07851563 28.76414063 -21.98828125 29.76953125 C-22.65214844 30.50558594 -23.31601562 31.24164063 -24 32 C-24.66 31.34 -25.32 30.68 -26 30 C-25.23816406 29.18917969 -24.47632813 28.37835938 -23.69140625 27.54296875 C-17.17183348 20.5655102 -10.97012599 13.45656553 -5 6 C-3.34239055 3.99219137 -1.67211707 1.99575263 0 0 Z " fill="#121212" transform="translate(402,219)"/>
<path d="M0 0 C3.7297757 1.24325857 4.30509618 2.51003747 6.46875 5.734375 C7.12230469 6.70117188 7.77585937 7.66796875 8.44921875 8.6640625 C9.12597656 9.68242187 9.80273438 10.70078125 10.5 11.75 C11.17675781 12.75289063 11.85351562 13.75578125 12.55078125 14.7890625 C15.47392501 19.13630194 18.33381117 23.48939287 21 28 C20.01 28.33 19.02 28.66 18 29 C17.57589844 28.32195312 17.15179688 27.64390625 16.71484375 26.9453125 C10.29502011 16.07638061 10.29502011 16.07638061 2.33984375 6.38671875 C0.47320988 4.45477991 0.35218397 2.60616138 0 0 Z " fill="#191919" transform="translate(418,434)"/>
<path d="M0 0 C4.02551443 3.75284144 6.97618647 7.68911224 9.9375 12.3125 C12.71543997 16.58976932 15.5051301 20.75716674 18.6875 24.75 C19.450625 25.8225 20.21375 26.895 21 28 C20.67 28.99 20.34 29.98 20 31 C15.98367437 26.17637273 12.45692036 21.02262576 8.875 15.875 C8.24207031 14.96878906 7.60914063 14.06257813 6.95703125 13.12890625 C0 3.15863854 0 3.15863854 0 0 Z " fill="#171717" transform="translate(298,322)"/>
<path d="M0 0 C0.99 0.33 1.98 0.66 3 1 C2.38253906 1.66644531 1.76507813 2.33289063 1.12890625 3.01953125 C-4.18012478 8.79724386 -9.27142679 14.66640084 -14.1875 20.78515625 C-16 23 -16 23 -18 25 C-18.99 24.67 -19.98 24.34 -21 24 C-20.28714844 23.2265625 -19.57429688 22.453125 -18.83984375 21.65625 C-9.02190562 11.16349997 -9.02190562 11.16349997 0 0 Z " fill="#1F1F1F" transform="translate(372,254)"/>
<path d="M0 0 C14.85 0 29.7 0 45 0 C45 0.33 45 0.66 45 1 C31.47 1.33 17.94 1.66 4 2 C5.32 4.31 6.64 6.62 8 9 C7.01 9.495 7.01 9.495 6 10 C4.02 6.7 2.04 3.4 0 0 Z " fill="#1B1B1B" transform="translate(183,157)"/>
<path d="M0 0 C3.18519718 2.97947175 5.55246744 6.10397003 7.9375 9.75 C8.62714844 10.801875 9.31679687 11.85375 10.02734375 12.9375 C12.38867078 16.60340177 14.7146352 20.28628221 17 24 C16.01 24.33 15.02 24.66 14 25 C13.505 24.071875 13.01 23.14375 12.5 22.1875 C9.92275519 17.63063237 6.76168563 13.52595271 3.609375 9.35546875 C2 7 2 7 2 5 C1.34 5 0.68 5 0 5 C-0.5625 3.0625 -0.5625 3.0625 -1 1 C-0.67 0.67 -0.34 0.34 0 0 Z " fill="#1A1A1A" transform="translate(241,284)"/>
<path d="M0 0 C7.43362562 7.10972037 12.5784833 16.33216479 18 25 C17.34 25.66 16.68 26.32 16 27 C14.10217617 24.16799539 12.20711663 21.33415102 10.3125 18.5 C9.78205078 17.70851562 9.25160156 16.91703125 8.70507812 16.1015625 C5.37863151 11.1220964 2.13963731 6.09938292 -1 1 C-0.67 0.67 -0.34 0.34 0 0 Z " fill="#171717" transform="translate(274,178)"/>
<path d="M0 0 C4.25942781 4.08590413 7.42191636 8.6505067 10.75 13.5 C11.35199219 14.35464844 11.95398438 15.20929688 12.57421875 16.08984375 C13.14269531 16.91613281 13.71117187 17.74242187 14.296875 18.59375 C14.81604492 19.34333984 15.33521484 20.09292969 15.87011719 20.86523438 C17 23 17 23 17 27 C12.93302176 22.12168014 9.37280435 16.89712211 5.75 11.6875 C4.77546875 10.29047852 4.77546875 10.29047852 3.78125 8.86523438 C2.18596921 6.57788324 0.5922712 4.2894467 -1 2 C-0.67 1.34 -0.34 0.68 0 0 Z " fill="#1C1C1C" transform="translate(252,146)"/>
<path d="M0 0 C3.17986955 3.89552465 6.14592913 7.9071809 9.0625 12 C9.49626953 12.60328125 9.93003906 13.2065625 10.37695312 13.828125 C12.74144852 17.13913833 14.96256833 20.47290517 17 24 C16.01 24 15.02 24 14 24 C12.22838596 21.88907683 10.67340188 19.82875001 9.125 17.5625 C8.68172363 16.92812012 8.23844727 16.29374023 7.78173828 15.64013672 C4.53216558 10.93118223 1.57160286 6.11613621 -1 1 C-0.67 0.67 -0.34 0.34 0 0 Z " fill="#191919" transform="translate(336,313)"/>
<path d="M0 0 C4.27636823 4.09692801 7.42322459 8.6893224 10.75 13.5625 C11.35199219 14.42552734 11.95398438 15.28855469 12.57421875 16.17773438 C13.14269531 17.00724609 13.71117187 17.83675781 14.296875 18.69140625 C14.81604492 19.44623291 15.33521484 20.20105957 15.87011719 20.97875977 C17 23 17 23 17 26 C14.4000702 23.48972295 12.00908773 21.0136316 10 18 C10 17.34 10 16.68 10 16 C9.34 16 8.68 16 8 16 C7.443125 14.7934375 7.443125 14.7934375 6.875 13.5625 C4.6676396 9.11578848 1.8049231 5.08483947 -1 1 C-0.67 0.67 -0.34 0.34 0 0 Z " fill="#1A1A1A" transform="translate(183,200)"/>
<path d="M0 0 C4.28879579 3.78913026 7.14703458 8.49904816 10.25 13.25 C10.80429687 14.09046875 11.35859375 14.9309375 11.9296875 15.796875 C13.29069425 17.86185075 14.64729288 19.92958185 16 22 C15.34 22.66 14.68 23.32 14 24 C6.575 13.11 6.575 13.11 -1 2 C-0.67 1.34 -0.34 0.68 0 0 Z " fill="#191919" transform="translate(431,406)"/>
<path d="M0 0 C4.28879579 3.78913026 7.14703458 8.49904816 10.25 13.25 C10.80429687 14.09046875 11.35859375 14.9309375 11.9296875 15.796875 C13.29069425 17.86185075 14.64729288 19.92958185 16 22 C15.34 22.66 14.68 23.32 14 24 C8.89232922 16.39819388 3.88147497 8.74934151 -1 1 C-0.67 0.67 -0.34 0.34 0 0 Z " fill="#161616" transform="translate(365,419)"/>
<path d="M0 0 C0.66 0.66 1.32 1.32 2 2 C1.443125 2.60585938 0.88625 3.21171875 0.3125 3.8359375 C-5.03799629 9.71063781 -10.10991041 15.73748745 -15 22 C-15.66 21.34 -16.32 20.68 -17 20 C-16.44070801 19.35768433 -16.44070801 19.35768433 -15.87011719 18.70239258 C-14.16238549 16.73998519 -12.45618273 14.77625422 -10.75 12.8125 C-10.16347656 12.13896484 -9.57695312 11.46542969 -8.97265625 10.77148438 C-5.90447811 7.23790842 -2.88930707 3.68315133 0 0 Z " fill="#141414" transform="translate(212,402)"/>
<path d="M0 0 C3.61692478 3.42755699 6.46309201 6.89420847 9.1875 11.0625 C9.86167969 12.08472656 10.53585937 13.10695313 11.23046875 14.16015625 C12.63047438 16.4069644 13.88047506 18.60593898 15 21 C14.34 21.33 13.68 21.66 13 22 C10.82199326 18.90364795 8.65960765 15.79670644 6.5 12.6875 C5.87996094 11.80642578 5.25992187 10.92535156 4.62109375 10.01757812 C4.03457031 9.17001953 3.44804687 8.32246094 2.84375 7.44921875 C2.29912109 6.66893311 1.75449219 5.88864746 1.19335938 5.0847168 C0 3 0 3 0 0 Z " fill="#181818" transform="translate(382,444)"/>
<path d="M0 0 C0.99 0.33 1.98 0.66 3 1 C2.43152344 1.6290625 1.86304688 2.258125 1.27734375 2.90625 C-3.5271682 8.23211968 -8.29600848 13.58511587 -13 19 C-13.33 18.34 -13.66 17.68 -14 17 C-4.58997722 5.47835991 -4.58997722 5.47835991 0 0 Z " fill="#212121" transform="translate(469,141)"/>
<path d="M0 0 C0.99 0.33 1.98 0.66 3 1 C2.38511719 1.66386719 1.77023438 2.32773437 1.13671875 3.01171875 C0.32847656 3.89472656 -0.47976562 4.77773438 -1.3125 5.6875 C-2.11300781 6.55761719 -2.91351563 7.42773438 -3.73828125 8.32421875 C-6.05198879 10.90583224 -6.05198879 10.90583224 -7.625 13.78125 C-9 16 -9 16 -11.6875 16.8125 C-12.450625 16.874375 -13.21375 16.93625 -14 17 C-13.175 16.05125 -12.35 15.1025 -11.5 14.125 C-7.54358862 9.51549679 -3.77324563 4.75965248 0 0 Z " fill="#1A1A1A" transform="translate(194,461)"/>
<path d="M0 0 C3.70605319 3.49835844 6.52199492 7.00850064 9.3125 11.3125 C10.00988281 12.38113281 10.70726562 13.44976562 11.42578125 14.55078125 C11.94527344 15.35902344 12.46476562 16.16726562 13 17 C12.34 17.66 11.68 18.32 11 19 C9.15527264 16.40373357 7.32626878 13.79677591 5.5 11.1875 C4.97535156 10.44951172 4.45070313 9.71152344 3.91015625 8.95117188 C3.41386719 8.23896484 2.91757812 7.52675781 2.40625 6.79296875 C1.94541016 6.1383667 1.48457031 5.48376465 1.00976562 4.80932617 C0 3 0 3 0 0 Z " fill="#181818" transform="translate(293,206)"/>
<path d="M0 0 C2.6486859 3.19668988 4.93992341 6.39486597 7 10 C5.88200014 11.33920838 4.75538103 12.67122556 3.625 14 C2.68527344 15.11375 2.68527344 15.11375 1.7265625 16.25 C1.15679687 16.8275 0.58703125 17.405 0 18 C-0.66 18 -1.32 18 -2 18 C-0.93102496 15.69759223 0.03624312 13.95987369 1.75 12.0625 C2.1625 11.381875 2.575 10.70125 3 10 C2.38858872 7.42885788 2.38858872 7.42885788 1 5 C0.62875 4.236875 0.2575 3.47375 -0.125 2.6875 C-0.41375 2.130625 -0.7025 1.57375 -1 1 C-0.67 0.67 -0.34 0.34 0 0 Z " fill="#161616" transform="translate(268,323)"/>
<path d="M0 0 C3.70605319 3.49835844 6.52199492 7.00850064 9.3125 11.3125 C10.00988281 12.38113281 10.70726562 13.44976562 11.42578125 14.55078125 C11.94527344 15.35902344 12.46476562 16.16726563 13 17 C12.34 17.66 11.68 18.32 11 19 C9.15527264 16.40373357 7.32626878 13.79677591 5.5 11.1875 C4.97535156 10.44951172 4.45070312 9.71152344 3.91015625 8.95117188 C3.41386719 8.23896484 2.91757813 7.52675781 2.40625 6.79296875 C1.94541016 6.1383667 1.48457031 5.48376465 1.00976562 4.80932617 C0 3 0 3 0 0 Z " fill="#141414" transform="translate(245,245)"/>
<path d="M0 0 C2.86392794 3.52830761 5.58784278 7.12984917 8.25 10.8125 C8.95640625 11.78832031 9.6628125 12.76414063 10.390625 13.76953125 C10.92171875 14.50558594 11.4528125 15.24164063 12 16 C11.34 16.66 10.68 17.32 10 18 C8.72346071 16.29592618 7.4540296 14.58652649 6.1875 12.875 C5.47980469 11.92367187 4.77210938 10.97234375 4.04296875 9.9921875 C2.05996771 7.08783034 0.49489388 4.17841791 -1 1 C-0.67 0.67 -0.34 0.34 0 0 Z " fill="#191919" transform="translate(272,220)"/>
<path d="M0 0 C2.86392794 3.52830761 5.58784278 7.12984917 8.25 10.8125 C8.95640625 11.78832031 9.6628125 12.76414063 10.390625 13.76953125 C10.92171875 14.50558594 11.4528125 15.24164063 12 16 C11.34 16.66 10.68 17.32 10 18 C8.72346071 16.29592618 7.4540296 14.58652649 6.1875 12.875 C5.47980469 11.92367187 4.77210938 10.97234375 4.04296875 9.9921875 C2.05996771 7.08783034 0.49489388 4.17841791 -1 1 C-0.67 0.67 -0.34 0.34 0 0 Z " fill="#1C1C1C" transform="translate(171,182)"/>
<path d="M0 0 C0.33 0.99 0.66 1.98 1 3 C-2.96 7.29 -6.92 11.58 -11 16 C-11.66 15.67 -12.32 15.34 -13 15 C-10.82473237 10.99292806 -8.2942212 8.13735352 -5 5 C-3.6078125 3.6078125 -3.6078125 3.6078125 -2.1875 2.1875 C-1.1046875 1.1046875 -1.1046875 1.1046875 0 0 Z " fill="#161616" transform="translate(373,215)"/>
<path d="M0 0 C4.0744433 1.35814777 5.42021951 4.1308426 7.6875 7.5625 C8.10322266 8.17802734 8.51894531 8.79355469 8.94726562 9.42773438 C9.97193162 10.94706671 10.98690678 12.47292657 12 14 C11.34 14.66 10.68 15.32 10 16 C8.99421411 14.71283353 7.99553202 13.42011342 7 12.125 C6.443125 11.40570313 5.88625 10.68640625 5.3125 9.9453125 C4 8 4 8 4 6 C3.34 6 2.68 6 2 6 C1.34 4.02 0.68 2.04 0 0 Z " fill="#252525" transform="translate(385,386)"/>
<path d="M0 0 C3.19249477 2.96647745 5.4592987 6.04963636 7.75 9.75 C8.36359375 10.73484375 8.9771875 11.7196875 9.609375 12.734375 C10.29773438 13.85585937 10.29773438 13.85585937 11 15 C10.01 15.33 9.02 15.66 8 16 C7.59007812 15.30132812 7.18015625 14.60265625 6.7578125 13.8828125 C6.21898437 12.97273437 5.68015625 12.06265625 5.125 11.125 C4.59132812 10.22007812 4.05765625 9.31515625 3.5078125 8.3828125 C2.08024648 5.93396718 2.08024648 5.93396718 0 4 C0 2.68 0 1.36 0 0 Z " fill="#1B1B1B" transform="translate(203,229)"/>
<path d="M0 0 C4.0364974 1.34549913 4.86986428 3.35422005 7.1875 6.875 C7.90292969 7.94492188 8.61835938 9.01484375 9.35546875 10.1171875 C11 13 11 13 11 16 C10.34 16 9.68 16 9 16 C7.59765625 13.953125 7.59765625 13.953125 6.0625 11.25 C4.5737339 8.64561122 3.13635002 6.17760142 1.30859375 3.796875 C0 2 0 2 0 0 Z " fill="#171717" transform="translate(158,165)"/>
<path d="M0 0 C0.66 0 1.32 0 2 0 C3.65625 2.265625 3.65625 2.265625 5.5 5.25 C6.1084375 6.22453125 6.716875 7.1990625 7.34375 8.203125 C8.66713848 10.43790366 9.88436415 12.65716472 11 15 C10.01 15.495 10.01 15.495 9 16 C7.49130977 13.90160347 5.99301643 11.79700219 4.5 9.6875 C4.07074219 9.09259766 3.64148438 8.49769531 3.19921875 7.88476562 C0 3.33984375 0 3.33984375 0 0 Z " fill="#161616" transform="translate(399,360)"/>
<path d="M0 0 C0.66 0.66 1.32 1.32 2 2 C0.37561031 3.79222332 -1.24948446 5.5837983 -2.875 7.375 C-3.33519531 7.88289063 -3.79539063 8.39078125 -4.26953125 8.9140625 C-6.14601858 10.98091811 -8.02570548 13.02570548 -10 15 C-10 10.72159739 -7.71595568 9.17965543 -5 6 C-4.67 5.01 -4.34 4.02 -4 3 C-1.9375 1.3125 -1.9375 1.3125 0 0 Z " fill="#101010" transform="translate(176,444)"/>
<path d="M0 0 C0.99 0 1.98 0 3 0 C5.04296875 2.51953125 5.04296875 2.51953125 7.1875 5.8125 C7.90292969 6.89144531 8.61835938 7.97039062 9.35546875 9.08203125 C11 12 11 12 11 15 C6.48314191 10.88168822 3.1481023 6.23601895 0 1 C0 0.67 0 0.34 0 0 Z " fill="#1A1A1A" transform="translate(306,381)"/>
<path d="M0 0 C3.19249477 2.96647745 5.4592987 6.04963636 7.75 9.75 C8.36359375 10.73484375 8.9771875 11.7196875 9.609375 12.734375 C10.29773438 13.85585938 10.29773438 13.85585938 11 15 C10.01 15 9.02 15 8 15 C5.95703125 12.48046875 5.95703125 12.48046875 3.8125 9.1875 C3.09707031 8.10855469 2.38164062 7.02960938 1.64453125 5.91796875 C0 3 0 3 0 0 Z " fill="#191919" transform="translate(324,296)"/>
<path d="M0 0 C3.98103298 4.77723958 7.46719209 9.88933687 11 15 C10.34 15.66 9.68 16.32 9 17 C7.48825678 14.92435256 5.9907547 12.84063797 4.5 10.75 C4.07074219 10.16347656 3.64148438 9.57695312 3.19921875 8.97265625 C0.81572425 5.60549735 0 4.24700272 0 0 Z " fill="#161616" transform="translate(308,227)"/>
<path d="M0 0 C0.99 0 1.98 0 3 0 C5.04296875 2.51953125 5.04296875 2.51953125 7.1875 5.8125 C7.90292969 6.89144531 8.61835938 7.97039062 9.35546875 9.08203125 C11 12 11 12 11 15 C7.41193683 11.61127367 4.54315201 8.23858668 2 4 C2 3.34 2 2.68 2 2 C1.34 2 0.68 2 0 2 C0 1.34 0 0.68 0 0 Z " fill="#1A1A1A" transform="translate(147,150)"/>
<path d="M0 0 C3.71080883 4.42442592 6.84577733 9.17403931 10 14 C9.01 14 8.02 14 7 14 C4.95703125 11.375 4.95703125 11.375 2.8125 8 C2.44447266 7.42765625 2.07644531 6.8553125 1.69726562 6.265625 C0.78874929 4.84975538 -0.10686477 3.42562203 -1 2 C-0.67 1.34 -0.34 0.68 0 0 Z " fill="#1D1D1D" transform="translate(398,403)"/>
<path d="M0 0 C0.99 0.33 1.98 0.66 3 1 C1.71580959 2.67243402 0.42242815 4.33781447 -0.875 6 C-1.59429687 6.928125 -2.31359375 7.85625 -3.0546875 8.8125 C-3.69664062 9.534375 -4.33859375 10.25625 -5 11 C-5.66 11 -6.32 11 -7 11 C-7.33 11.66 -7.66 12.32 -8 13 C-7.48118887 8.8275894 -6.28848726 6.74583179 -3.4375 3.6875 C-2.79683594 2.99011719 -2.15617188 2.29273438 -1.49609375 1.57421875 C-1.00238281 1.05472656 -0.50867188 0.53523438 0 0 Z " fill="#1B1B1B" transform="translate(206,447)"/>
<path d="M0 0 C0.66 0.66 1.32 1.32 2 2 C0.54234835 3.62561151 -0.91614386 5.25046934 -2.375 6.875 C-3.18710938 7.77992188 -3.99921875 8.68484375 -4.8359375 9.6171875 C-6.19076205 11.10896183 -7.57505435 12.57505435 -9 14 C-8.50128936 9.54326841 -6.97995638 7.42312822 -3.9375 4.1875 C-3.20402344 3.39730469 -2.47054687 2.60710937 -1.71484375 1.79296875 C-1.14894531 1.20128906 -0.58304688 0.60960937 0 0 Z " fill="#1A1A1A" transform="translate(225,425)"/>
<path d="M0 0 C0.66 0 1.32 0 2 0 C3.69140625 2.08203125 3.69140625 2.08203125 5.5625 4.8125 C6.18253906 5.70582031 6.80257812 6.59914062 7.44140625 7.51953125 C9 10 9 10 10 13 C9.01 13.495 9.01 13.495 8 14 C6.84669053 12.42210402 5.70262073 10.8374518 4.5625 9.25 C3.92441406 8.36828125 3.28632813 7.4865625 2.62890625 6.578125 C1.1724919 4.27300875 0.44068179 2.65650428 0 0 Z " fill="#151515" transform="translate(241,131)"/>
<path d="M0 0 C3.25519625 3.02268223 5.78310719 6.14096436 8 10 C7.67 10.99 7.34 11.98 7 13 C4.04415849 10.24800963 1.81234853 7.62469707 0 4 C0 2.68 0 1.36 0 0 Z " fill="#1D1D1D" transform="translate(360,348)"/>
<path d="M0 0 C0.99 0.33 1.98 0.66 3 1 C-0.3 4.63 -3.6 8.26 -7 12 C-7.66 11.67 -8.32 11.34 -9 11 C-6.03 7.37 -3.06 3.74 0 0 Z " fill="#141414" transform="translate(358,232)"/>
<path d="M0 0 C4.23431576 3.60700972 6.4692099 8.14586161 9 13 C8.01 13.495 8.01 13.495 7 14 C4.36 10.04 1.72 6.08 -1 2 C-0.67 1.34 -0.34 0.68 0 0 Z " fill="#191919" transform="translate(193,169)"/>
<path d="M0 0 C0.66 0.66 1.32 1.32 2 2 C-0.97 5.3 -3.94 8.6 -7 12 C-7.33 11.01 -7.66 10.02 -8 9 C-5.36 6.03 -2.72 3.06 0 0 Z " fill="#222222" transform="translate(262,382)"/>
<path d="M0 0 C0.33 0.99 0.66 1.98 1 3 C-0.328125 4.97265625 -0.328125 4.97265625 -2.25 7.0625 C-2.87390625 7.75472656 -3.4978125 8.44695312 -4.140625 9.16015625 C-6 11 -6 11 -9 13 C-7.47987323 7.59510481 -3.72614782 4.01507372 0 0 Z " fill="#181818" transform="translate(286,354)"/>
<path d="M0 0 C3.9036874 3.46994436 6.36588975 7.55224006 9 12 C8.01 12 7.02 12 6 12 C4.39453125 10.13671875 4.39453125 10.13671875 2.8125 7.6875 C2.28269531 6.88699219 1.75289063 6.08648437 1.20703125 5.26171875 C0 3 0 3 0 0 Z " fill="#171717" transform="translate(315,283)"/>
<path d="M0 0 C0.99 0.33 1.98 0.66 3 1 C0.03 4.3 -2.94 7.6 -6 11 C-6.66 10.34 -7.32 9.68 -8 9 C-5.36 6.03 -2.72 3.06 0 0 Z " fill="#202020" transform="translate(384,240)"/>
<path d="M0 0 C0.66 0.66 1.32 1.32 2 2 C-0.97 5.3 -3.94 8.6 -7 12 C-7.33 11.01 -7.66 10.02 -8 9 C-5.36 6.03 -2.72 3.06 0 0 Z " fill="#1F1F1F" transform="translate(452,161)"/>
<path d="M0 0 C3.9036874 3.46994436 6.36588975 7.55224006 9 12 C8.01 12 7.02 12 6 12 C4.39453125 10.13671875 4.39453125 10.13671875 2.8125 7.6875 C2.28269531 6.88699219 1.75289063 6.08648437 1.20703125 5.26171875 C0 3 0 3 0 0 Z " fill="#171717" transform="translate(320,399)"/>
<path d="M0 0 C3.25519625 3.02268223 5.78310719 6.14096436 8 10 C7.67 10.99 7.34 11.98 7 13 C5.66104368 11.33784732 4.32869858 9.67036393 3 8 C2.4225 7.319375 1.845 6.63875 1.25 5.9375 C0 4 0 4 0 0 Z " fill="#1B1B1B" transform="translate(353,401)"/>
<path d="M0 0 C0.99 0.33 1.98 0.66 3 1 C3.39044206 2.31774196 3.70955086 3.65667272 4 5 C4.96887581 7.01526169 5.9641321 9.01833966 7 11 C6.01 11.495 6.01 11.495 5 12 C3.96674014 10.57140593 2.94872366 9.13177617 1.9375 7.6875 C1.36902344 6.88699219 0.80054688 6.08648437 0.21484375 5.26171875 C-0.18605469 4.51535156 -0.58695312 3.76898438 -1 3 C-0.67 2.01 -0.34 1.02 0 0 Z " fill="#1D1D1D" transform="translate(347,283)"/>
<path d="M0 0 C0.99 0 1.98 0 3 0 C4.82421875 2.40625 4.82421875 2.40625 6.6875 5.5 C7.31011719 6.5209375 7.93273437 7.541875 8.57421875 8.59375 C9.04472656 9.3878125 9.51523437 10.181875 10 11 C8.203125 10.81640625 8.203125 10.81640625 6 10 C4.296875 7.71484375 4.296875 7.71484375 2.75 4.9375 C1.96882813 3.55884766 1.96882813 3.55884766 1.171875 2.15234375 C0.59179688 1.08693359 0.59179688 1.08693359 0 0 Z " fill="#1B1B1B" transform="translate(290,249)"/>
<path d="M0 0 C2.9156164 3.54039134 5.50127818 7.1626772 8 11 C7.01 11 6.02 11 5 11 C3.39453125 9.03125 3.39453125 9.03125 1.8125 6.5 C1.28269531 5.6646875 0.75289063 4.829375 0.20703125 3.96875 C-0.19128906 3.3190625 -0.58960938 2.669375 -1 2 C-0.67 1.34 -0.34 0.68 0 0 Z " fill="#1C1C1C" transform="translate(409,419)"/>
<path d="M0 0 C0.66 0.66 1.32 1.32 2 2 C-0.31 4.64 -2.62 7.28 -5 10 C-5.99 9.67 -6.98 9.34 -8 9 C-5.36 6.03 -2.72 3.06 0 0 Z " fill="#1D1D1D" transform="translate(249,397)"/>
<path d="M0 0 C2.9156164 3.54039134 5.50127818 7.1626772 8 11 C7.01 11 6.02 11 5 11 C3.39453125 9.03125 3.39453125 9.03125 1.8125 6.5 C1.28269531 5.6646875 0.75289063 4.829375 0.20703125 3.96875 C-0.19128906 3.3190625 -0.58960938 2.669375 -1 2 C-0.67 1.34 -0.34 0.68 0 0 Z " fill="#1C1C1C" transform="translate(259,310)"/>
<path d="M0 0 C2.9156164 3.54039134 5.50127818 7.1626772 8 11 C7.34 11.66 6.68 12.32 6 13 C4.98868775 11.59138651 3.99133233 10.17274547 3 8.75 C2.1646875 7.56664062 2.1646875 7.56664062 1.3125 6.359375 C0 4 0 4 0 0 Z " fill="#1A1A1A" transform="translate(267,276)"/>
<path d="M0 0 C3.67033927 3.27708863 5.69281189 6.71522208 8 11 C7.01 11 6.02 11 5 11 C3.39453125 9.03125 3.39453125 9.03125 1.8125 6.5 C1.28269531 5.6646875 0.75289062 4.829375 0.20703125 3.96875 C-0.19128906 3.3190625 -0.58960938 2.669375 -1 2 C-0.67 1.34 -0.34 0.68 0 0 Z " fill="#1F1F1F" transform="translate(230,159)"/>
<path d="M0 0 C0.99 0.33 1.98 0.66 3 1 C0.36 3.97 -2.28 6.94 -5 10 C-5.99 9.67 -6.98 9.34 -8 9 C-5.36 6.03 -2.72 3.06 0 0 Z " fill="#1E1E1E" transform="translate(176,482)"/>
<path d="M0 0 C0.66 0 1.32 0 2 0 C3.98 3.63 5.96 7.26 8 11 C7.01 11.495 7.01 11.495 6 12 C4.99157547 10.56839732 3.99352109 9.12948547 3 7.6875 C2.1646875 6.48673828 2.1646875 6.48673828 1.3125 5.26171875 C0 3 0 3 0 0 Z " fill="#1A1A1A" transform="translate(331,370)"/>
<path d="M0 0 C1.33895632 1.66215268 2.67130142 3.32963607 4 5 C4.598125 5.70125 5.19625 6.4025 5.8125 7.125 C6.204375 7.74375 6.59625 8.3625 7 9 C6.67 9.99 6.34 10.98 6 12 C2 7.25 2 7.25 2 5 C1.34 5 0.68 5 0 5 C-0.5625 3.0625 -0.5625 3.0625 -1 1 C-0.67 0.67 -0.34 0.34 0 0 Z " fill="#1B1B1B" transform="translate(233,272)"/>
<path d="M0 0 C0.99 0.33 1.98 0.66 3 1 C0.36 3.97 -2.28 6.94 -5 10 C-5.99 9.67 -6.98 9.34 -8 9 C-5.36 6.03 -2.72 3.06 0 0 Z " fill="#202020" transform="translate(402,219)"/>
<path d="M0 0 C3.68006822 3.38168431 5.9785845 6.42521756 8 11 C7.01 11.495 7.01 11.495 6 12 C4.99157547 10.56839732 3.99352109 9.12948547 3 7.6875 C2.1646875 6.48673828 2.1646875 6.48673828 1.3125 5.26171875 C0 3 0 3 0 0 Z " fill="#1A1A1A" transform="translate(342,386)"/>
<path d="M0 0 C2.9156164 3.54039134 5.50127818 7.1626772 8 11 C7.01 11 6.02 11 5 11 C3.39453125 8.8125 3.39453125 8.8125 1.8125 6 C1.28269531 5.071875 0.75289063 4.14375 0.20703125 3.1875 C-0.19128906 2.465625 -0.58960938 1.74375 -1 1 C-0.67 0.67 -0.34 0.34 0 0 Z " fill="#1E1E1E" transform="translate(288,352)"/>
<path d="M0 0 C4.30983135 2.52645286 5.29942025 5.49346365 7 10 C6.01 10.495 6.01 10.495 5 11 C3.02 7.7 1.04 4.4 -1 1 C-0.67 0.67 -0.34 0.34 0 0 Z " fill="#1A1A1A" transform="translate(358,300)"/>
<path d="M0 0 C5.13623978 4.95912807 5.13623978 4.95912807 7 8 C6.67 8.99 6.34 9.98 6 11 C3.3513141 7.80331012 1.06007659 4.60513403 -1 1 C-0.67 0.67 -0.34 0.34 0 0 Z " fill="#191919" transform="translate(259,265)"/>
<path d="M0 0 C2.96404505 2.80804268 5.44499019 5.18315774 7 9 C6.01 9 5.02 9 4 9 C0 3.85714286 0 3.85714286 0 0 Z " fill="#1C1C1C" transform="translate(377,482)"/>
<path d="M0 0 C3.69790046 1.23263349 3.9354846 2.20052451 5.6875 5.5625 C6.12449219 6.38878906 6.56148438 7.21507812 7.01171875 8.06640625 C7.33785156 8.70449219 7.66398437 9.34257812 8 10 C7.01 10.495 7.01 10.495 6 11 C4.9944239 9.54550599 3.99569565 8.08627557 3 6.625 C2.443125 5.81289063 1.88625 5.00078125 1.3125 4.1640625 C0 2 0 2 0 0 Z " fill="#131313" transform="translate(439,419)"/>
<path d="M0 0 C0.33 0.99 0.66 1.98 1 3 C-0.43359375 5.04296875 -0.43359375 5.04296875 -2.4375 7.1875 C-3.09621094 7.90292969 -3.75492188 8.61835938 -4.43359375 9.35546875 C-4.95050781 9.89816406 -5.46742188 10.44085938 -6 11 C-6.66 10.34 -7.32 9.68 -8 9 C-5.36 6.03 -2.72 3.06 0 0 Z " fill="#1E1E1E" transform="translate(203,413)"/>
<path d="M0 0 C0.66 0.66 1.32 1.32 2 2 C-0.31 4.64 -2.62 7.28 -5 10 C-5.66 9.34 -6.32 8.68 -7 8 C-4.69 5.36 -2.38 2.72 0 0 Z " fill="#1D1D1D" transform="translate(255,352)"/>
<path d="M0 0 C0.99 0.33 1.98 0.66 3 1 C0.36 3.97 -2.28 6.94 -5 10 C-5.66 9.34 -6.32 8.68 -7 8 C-4.69 5.36 -2.38 2.72 0 0 Z " fill="#1A1A1A" transform="translate(433,183)"/>
<path d="M0 0 C3.39417765 3.12621626 5.6062718 5.56541027 7 10 C6.01 10.495 6.01 10.495 5 11 C4.15841464 9.73461631 3.32700252 8.46246221 2.5 7.1875 C1.80390625 6.12595703 1.80390625 6.12595703 1.09375 5.04296875 C0 3 0 3 0 0 Z " fill="#161616" transform="translate(483,482)"/>
<path d="M0 0 C3.33557632 2.9905167 5.15083921 5.93184627 7 10 C6.01 10.495 6.01 10.495 5 11 C3.02 7.7 1.04 4.4 -1 1 C-0.67 0.67 -0.34 0.34 0 0 Z " fill="#1C1C1C" transform="translate(365,419)"/>
<path d="M0 0 C0.66 0.66 1.32 1.32 2 2 C-0.31 4.64 -2.62 7.28 -5 10 C-5.66 9.34 -6.32 8.68 -7 8 C-4.69 5.36 -2.38 2.72 0 0 Z " fill="#1F1F1F" transform="translate(226,386)"/>
<path d="M0 0 C0.66 0.66 1.32 1.32 2 2 C-0.31 4.64 -2.62 7.28 -5 10 C-5.66 9.34 -6.32 8.68 -7 8 C-4.69 5.36 -2.38 2.72 0 0 Z " fill="#171717" transform="translate(243,366)"/>
<path d="M0 0 C3.78717347 1.48781815 5.77407001 3.61988409 8 7 C7.67 7.99 7.34 8.98 7 10 C4.3513141 6.80331012 2.06007659 3.60513403 0 0 Z " fill="#1D1D1D" transform="translate(311,343)"/>
<path d="M0 0 C0.33 0.99 0.66 1.98 1 3 C-0.21484375 4.82421875 -0.21484375 4.82421875 -1.9375 6.6875 C-2.50339844 7.31011719 -3.06929688 7.93273437 -3.65234375 8.57421875 C-4.09707031 9.04472656 -4.54179687 9.51523438 -5 10 C-5.66 9.34 -6.32 8.68 -7 8 C-4.69 5.36 -2.38 2.72 0 0 Z " fill="#1F1F1F" transform="translate(420,198)"/>
<path d="M0 0 C3.33557632 2.9905167 5.15083921 5.93184627 7 10 C6.01 10.495 6.01 10.495 5 11 C3.02 7.7 1.04 4.4 -1 1 C-0.67 0.67 -0.34 0.34 0 0 Z " fill="#1A1A1A" transform="translate(204,185)"/>
<path d="M0 0 C0.66 0.66 1.32 1.32 2 2 C-0.31 4.64 -2.62 7.28 -5 10 C-5.66 9.34 -6.32 8.68 -7 8 C-4.69 5.36 -2.38 2.72 0 0 Z " fill="#202020" transform="translate(409,173)"/>
<path d="M0 0 C0.33 0.99 0.66 1.98 1 3 C-0.43359375 5.04296875 -0.43359375 5.04296875 -2.4375 7.1875 C-3.09621094 7.90292969 -3.75492187 8.61835938 -4.43359375 9.35546875 C-4.95050781 9.89816406 -5.46742188 10.44085938 -6 11 C-6.66 10.67 -7.32 10.34 -8 10 C-5.36 6.7 -2.72 3.4 0 0 Z " fill="#161616" transform="translate(430,148)"/>
<path d="M0 0 C3.33557632 2.9905167 5.15083921 5.93184627 7 10 C6.01 10.495 6.01 10.495 5 11 C3.02 7.7 1.04 4.4 -1 1 C-0.67 0.67 -0.34 0.34 0 0 Z " fill="#1D1D1D" transform="translate(252,146)"/>
<path d="M0 0 C2.95929119 2.75520215 5.03681826 5.46627288 7 9 C6.01 9 5.02 9 4 9 C0 3.85714286 0 3.85714286 0 0 Z " fill="#1A1A1A" transform="translate(240,174)"/>
<path d="M0 0 C1.5 1.375 1.5 1.375 3 3 C3 3.66 3 4.32 3 5 C3.66 5 4.32 5 5 5 C5.33 6.32 5.66 7.64 6 9 C5.01 9.495 5.01 9.495 4 10 C0 4.5 0 4.5 0 0 Z " fill="#1B1B1B" transform="translate(476,471)"/>
<path d="M0 0 C2.95929119 2.75520215 5.03681826 5.46627288 7 9 C6.01 9 5.02 9 4 9 C0 3.85714286 0 3.85714286 0 0 Z " fill="#1B1B1B" transform="translate(331,415)"/>
<path d="M0 0 C4.39158329 1.4638611 4.87947433 3.97831338 7 8 C6.01 8 5.02 8 4 8 C0 2.74285714 0 2.74285714 0 0 Z " fill="#1B1B1B" transform="translate(392,351)"/>
<path d="M0 0 C2.66735273 2.48952921 4.55746343 4.63408134 6 8 C5.01 8 4.02 8 3 8 C1.02 4.535 1.02 4.535 -1 1 C-0.67 0.67 -0.34 0.34 0 0 Z " fill="#222222" transform="translate(265,210)"/>
<path d="M0 0 C0.66 0.33 1.32 0.66 2 1 C-0.31 3.64 -2.62 6.28 -5 9 C-5.33 8.34 -5.66 7.68 -6 7 C-4.02 4.69 -2.04 2.38 0 0 Z " fill="#191919" transform="translate(461,151)"/>
<path d="M0 0 C0.66 0.66 1.32 1.32 2 2 C0.02 4.31 -1.96 6.62 -4 9 C-4.66 8.34 -5.32 7.68 -6 7 C-4.02 4.69 -2.04 2.38 0 0 Z " fill="#181818" transform="translate(438,139)"/>
<path d="M0 0 C0 4.38968456 -2.12805101 5.76905739 -5 9 C-5.66 8.67 -6.32 8.34 -7 8 C-4.69 5.36 -2.38 2.72 0 0 Z " fill="#141414" transform="translate(185,434)"/>
<path d="M0 0 C2.95929119 2.75520215 5.03681826 5.46627288 7 9 C5.1875 8.8125 5.1875 8.8125 3 8 C0.85802506 5.09303401 0 3.64478912 0 0 Z " fill="#191919" transform="translate(342,431)"/>
<path d="M0 0 C2.40072955 2.88087546 4.47291037 5.56404834 6 9 C5.01 9.495 5.01 9.495 4 10 C0 4.5 0 4.5 0 0 Z " fill="#1B1B1B" transform="translate(412,378)"/>
<path d="M0 0 C2.95929119 2.75520215 5.03681826 5.46627288 7 9 C5.1875 8.8125 5.1875 8.8125 3 8 C0.85802506 5.09303401 0 3.64478912 0 0 Z " fill="#1E1E1E" transform="translate(302,264)"/>
<path d="M0 0 C3.75376152 1.25125384 4.24073289 2.5652404 6 6 C6 6.66 6 7.32 6 8 C5.34 8 4.68 8 4 8 C4 7.34 4 6.68 4 6 C3.34 6 2.68 6 2 6 C1.34 4.02 0.68 2.04 0 0 Z " fill="#161616" transform="translate(385,386)"/>
<path d="M0 0 C2.12038635 2.61514317 4.13091744 5.19637616 6 8 C5.01 8 4.02 8 3 8 C1.02 4.535 1.02 4.535 -1 1 C-0.67 0.67 -0.34 0.34 0 0 Z " fill="#1C1C1C" transform="translate(301,371)"/>
<path d="M0 0 C2.5 2.25 2.5 2.25 5 5 C5 6.32 5 7.64 5 9 C0.57142857 3.85714286 0.57142857 3.85714286 0 0 Z " fill="#1A1A1A" transform="translate(280,296)"/>
<path d="M0 0 C2.12038635 2.61514317 4.13091744 5.19637616 6 8 C5.01 8 4.02 8 3 8 C1.02 4.535 1.02 4.535 -1 1 C-0.67 0.67 -0.34 0.34 0 0 Z " fill="#1F1F1F" transform="translate(226,262)"/>
<path d="M0 0 C3 1 3 1 4.75 3.375 C6 6 6 6 5 9 C4.16094435 7.87926138 3.32892169 6.75325453 2.5 5.625 C2.0359375 4.99851563 1.571875 4.37203125 1.09375 3.7265625 C0 2 0 2 0 0 Z " fill="#0E0E0E" transform="translate(221,211)"/>
<path d="M0 0 C3.16717283 1.58358642 4.73268318 2.45263699 6.3125 5.6875 C6.539375 6.450625 6.76625 7.21375 7 8 C5.68 7.34 4.36 6.68 3 6 C3 5.01 3 4.02 3 3 C2.01 2.67 1.02 2.34 0 2 C0 1.34 0 0.68 0 0 Z " fill="#151515" transform="translate(257,201)"/>
<path d="M0 0 C2.12038635 2.61514317 4.13091744 5.19637616 6 8 C5.01 8 4.02 8 3 8 C1.02 4.535 1.02 4.535 -1 1 C-0.67 0.67 -0.34 0.34 0 0 Z " fill="#1D1D1D" transform="translate(252,191)"/>
<path d="M0 0 C3 1 3 1 4.75 3.375 C6 6 6 6 5 9 C4.16094435 7.87926138 3.32892169 6.75325453 2.5 5.625 C2.0359375 4.99851563 1.571875 4.37203125 1.09375 3.7265625 C0 2 0 2 0 0 Z " fill="#0F0F0F" transform="translate(258,156)"/>
<path d="M0 0 C2.12038635 2.61514317 4.13091744 5.19637616 6 8 C5.01 8 4.02 8 3 8 C1.02 4.535 1.02 4.535 -1 1 C-0.67 0.67 -0.34 0.34 0 0 Z " fill="#1F1F1F" transform="translate(140,137)"/>
<path d="M0 0 C3.16115776 1.36983503 3.9927092 1.9890638 6 5 C5.625 7.1875 5.625 7.1875 5 9 C4.16094435 7.87926138 3.32892169 6.75325453 2.5 5.625 C2.0359375 4.99851562 1.571875 4.37203125 1.09375 3.7265625 C0 2 0 2 0 0 Z " fill="#181818" transform="translate(353,340)"/>
<path d="M0 0 C4.875 4.625 4.875 4.625 6 8 C5.01 8.495 5.01 8.495 4 9 C0 3.375 0 3.375 0 0 Z " fill="#1C1C1C" transform="translate(326,254)"/>
<path d="M0 0 C4.42857143 5.14285714 4.42857143 5.14285714 5 9 C0.125 4.375 0.125 4.375 -1 1 C-0.67 0.67 -0.34 0.34 0 0 Z " fill="#1A1A1A" transform="translate(215,246)"/>
<path d="M0 0 C0.66 0.66 1.32 1.32 2 2 C0.35 3.98 -1.3 5.96 -3 8 C-3.66 7.34 -4.32 6.68 -5 6 C-3.35 4.02 -1.7 2.04 0 0 Z " fill="#191919" transform="translate(170,451)"/>
<path d="M0 0 C0.66 0.66 1.32 1.32 2 2 C-0.3125 4.5 -0.3125 4.5 -3 7 C-3.99 7 -4.98 7 -6 7 C-4.02 4.69 -2.04 2.38 0 0 Z " fill="#D9D9D9" transform="translate(356,237)"/>
</svg>
